<svg xmlns="http://www.w3.org/2000/svg" xmlns:xlink="http://www.w3.org/1999/xlink" viewBox="0 0 1113.66 616.52"><defs><style>.cls-1,.cls-35,.cls-66{fill:none;}.cls-2{isolation:isolate;}.cls-3,.cls-4{fill:#dcf1f9;}.cls-4,.cls-9{opacity:0.4;}.cls-5{fill:#fc9549;}.cls-6{fill:#fc5e49;}.cls-7{fill:#2085b7;}.cls-8{fill:#fdd247;}.cls-10{fill:#67627a;}.cls-11,.cls-13{opacity:0.8;}.cls-12,.cls-13{fill:#77a5bc;}.cls-14{fill:#994b5e;}.cls-15{fill:#ba8c78;}.cls-16{fill:#aa6f7d;}.cls-17{fill:#939393;}.cls-18{fill:#636361;}.cls-19{fill:#4b859b;}.cls-20{fill:#ba7898;}.cls-21{clip-path:url(#clip-path);}.cls-22{mix-blend-mode:overlay;}.cls-23{fill:#fff;}.cls-24{fill:#d79495;}.cls-25{fill:#999;}.cls-26{fill:#b5d9e8;}.cls-27{fill:#9c46bc;}.cls-28{fill:#2c5168;}.cls-29{fill:#f8e5e2;}.cls-30{fill:#e03c38;}.cls-31{fill:#5c5c5c;}.cls-32{fill:#353535;}.cls-33{fill:#726f82;}.cls-34{fill:#008ea7;}.cls-35{stroke:#77a5bc;}.cls-35,.cls-66{stroke-miterlimit:10;}.cls-36,.cls-43{fill:#bbb3e3;}.cls-36,.cls-38,.cls-39,.cls-41,.cls-42,.cls-44,.cls-46{fill-rule:evenodd;}.cls-37,.cls-39{fill:#ff596b;}.cls-38{fill:#4c4294;}.cls-40,.cls-42{fill:#6257a8;}.cls-41,.cls-45{fill:#353647;}.cls-44{fill:#45465c;}.cls-46{fill:#9b95ba;}.cls-47{fill:#605575;}.cls-48{fill:#e57373;}.cls-49{fill:#383a45;}.cls-50{fill:#208e88;}.cls-51{fill:#f9b57c;}.cls-52{fill:#f70f36;}.cls-53{fill:#ba8424;}.cls-54{fill:#fab217;}.cls-55{fill:#bf8add;}.cls-56{opacity:0.5;}.cls-57{fill:#ffb27e;mix-blend-mode:screen;}.cls-58{fill:#db856e;}.cls-59{fill:#023d5f;}.cls-60{fill:#ed9c80;}.cls-61{fill:#e26a1a;}.cls-62{fill:#c5e6ef;}.cls-63{fill:#70c152;}.cls-64{fill:#afd4dd;}.cls-65{fill:#601903;}.cls-66{stroke:#ec1c24;stroke-width:2.64px;}</style><clipPath id="clip-path" transform="translate(-45.69 -7.93)"><polygon class="cls-1" points="981.47 358.5 1031.03 352.94 1055.5 519.75 1005.94 525.31 981.47 358.5"/></clipPath></defs><title>creating</title><g class="cls-2"><g id="Layer_10" data-name="Layer 10"><path class="cls-3" d="M206.85,590.51c2,18.61,171.69,33.94,365.72,33.94,201,0,364-16.08,365.13-36h0v-4.75h-2.88c-22.61-17.82-176.19-31.6-362.28-31.6-83.19,0-131.86-.82-189.17,7.69a45.81,45.81,0,0,1-14.93-.22s-.29,4.52.18,5c3.32,3.27,34.74,5.26,22.08,8.18-30.57,7.06-62.91-2.15-119.5,1.17-28.79,1.69-64.4,12.09-64.4,12.09Zm192.58-9.35c0-3.9,21.35-7.06,47.67-7.06s47.67,3.16,47.67,7.06-21.34,7.06-47.67,7.06S399.43,585.06,399.43,581.16Z" transform="translate(-45.69 -7.93)"/><path class="cls-4" d="M572.57,620.27c201.67,0,365.16-16.19,365.16-36.15S774.24,548,572.57,548c-83.19,0-131.86-.81-189.17,7.69-44.27,6.58,25.14,8.84,7.33,13-30.57,7.06-62.91-2.16-119.5,1.16-28.79,1.69-59,6.41-63.82,14.35C195.47,603.7,370.89,620.27,572.57,620.27ZM399.43,577c0-3.89,21.35-7.06,47.67-7.06s47.67,3.17,47.67,7.06S473.43,584,447.1,584,399.43,580.87,399.43,577Z" transform="translate(-45.69 -7.93)"/><path class="cls-5" d="M736.24,588a21,21,0,0,1,6-2.71,113.17,113.17,0,0,1,18.37-4.18c-1.55-.24-2-1.2-1.2-1.85a9.49,9.49,0,0,1,3.88-1.28c7.06-1.25,14.94-1.09,22.54-.92,15.26.35,30.56.71,45.6,1.91,7,.56,14.85,1.6,17.89,4.45a2.75,2.75,0,0,1,.77,3.6,45.2,45.2,0,0,0,5.6.67c1.86.25,3.76,1,3.2,1.84a3.27,3.27,0,0,1-1.31.79c-14.06,5.87-34.6,7.23-53.2,7.26A461.05,461.05,0,0,1,744.08,594c-3.24-.43-6.77-1-8.36-2.34C734.36,590.57,734.81,589.14,736.24,588Z" transform="translate(-45.69 -7.93)"/><path class="cls-6" d="M595.86,568.2a20.92,20.92,0,0,1,6-2.71,113,113,0,0,1,18.37-4.17c-1.56-.25-2-1.21-1.21-1.86a9.49,9.49,0,0,1,3.88-1.28c7.07-1.25,14.95-1.09,22.55-.92,15.25.36,30.56.71,45.59,1.91,7,.56,14.85,1.6,17.9,4.45a2.75,2.75,0,0,1,.76,3.6,47.14,47.14,0,0,0,5.6.68c1.87.24,3.76,1,3.2,1.83a3.09,3.09,0,0,1-1.31.79c-14.06,5.87-34.6,7.23-53.19,7.27a461.19,461.19,0,0,1-60.36-3.58c-3.24-.43-6.76-1-8.36-2.34C594,570.74,594.43,569.32,595.86,568.2Z" transform="translate(-45.69 -7.93)"/><path class="cls-7" d="M342,597.55a18.25,18.25,0,0,1,5.18-2.33,97.73,97.73,0,0,1,15.73-3.57c-1.33-.21-1.7-1-1-1.58a8.07,8.07,0,0,1,3.32-1.1c6-1.07,12.8-.94,19.3-.79,13.07.3,26.17.61,39.05,1.63,6,.48,12.71,1.38,15.32,3.81a2.36,2.36,0,0,1,.65,3.09,39,39,0,0,0,4.8.57c1.59.21,3.21.87,2.74,1.57a2.69,2.69,0,0,1-1.12.69c-12,5-29.63,6.19-45.55,6.21a394.2,394.2,0,0,1-51.68-3.06c-2.78-.37-5.79-.87-7.16-2C340.35,599.72,340.74,598.5,342,597.55Z" transform="translate(-45.69 -7.93)"/><path class="cls-8" d="M537,597.65a21,21,0,0,1,6.05-2.71,113.19,113.19,0,0,1,18.37-4.17c-1.55-.25-2-1.21-1.2-1.85a9.28,9.28,0,0,1,3.88-1.29c7.06-1.25,14.94-1.09,22.54-.92,15.26.36,30.56.71,45.6,1.91,7,.56,14.85,1.61,17.89,4.45a2.75,2.75,0,0,1,.77,3.6,47.14,47.14,0,0,0,5.6.68c1.86.24,3.75,1,3.2,1.83a3.16,3.16,0,0,1-1.31.8c-14.06,5.86-34.6,7.22-53.2,7.26a460.94,460.94,0,0,1-60.35-3.58c-3.25-.43-6.77-1-8.36-2.33C535.15,600.2,535.61,598.77,537,597.65Z" transform="translate(-45.69 -7.93)"/><g class="cls-9"><path class="cls-10" d="M1024,388c.46,1.94,1,3.86,1.59,5.78,4.52,14.36,14.52,27.33,12.73,42.84-2.58,22.44-22.8,43.73-48.37,61.2-28.8,19.67-64.39,34.49-89.23,40.62-42.07,10.37-74.84,5.11-117.37.65-51.5-5.4-84.76-36-132.67-50.11-36.21-10.65-79.93-6.55-116.5,1.9-32.92,7.6-56.34,36-89.2,40.5-38.34,5.26-90.15-18.11-112-45.05-22.75-28-19.41-63.73-43.78-92C268,369.65,242.56,347.8,237.9,315.57c-10.76-74.41,72.19-73.95,99.47-113.41,11.2-16.2,7.68-34.61,7.72-52,0-18.59,6.45-37.39,15.73-54C379.1,63.52,412.65,34.1,454.63,26.9c60.08-10.31,109.13,23.42,166.71,33.86C684.05,72.13,742.18,38.35,805.92,45.9c39.87,4.73,87.16,14.89,117.61,38.8,12.2,9.57,26.4,23.4,32.05,37.13,5,12.16,3.23,25.45,7.86,38.17,17.85,49.13,99.53,78.45,84.59,136.42-4.74,18.36-19.25,33.42-23.71,52.17A85.39,85.39,0,0,0,1024,388Z" transform="translate(-45.69 -7.93)"/></g><g class="cls-11"><path class="cls-12" d="M694.93,119.43,608.16,62.62,539.69,17.79c-.26-.31-1.56-.41-1.46,0L564,117.61l4.47,17.3s0,0,0,0l2.28,8.84c.09.33,1,.37,1.27.32L685.4,121.68l9.45-1.87C695.17,119.75,695.16,119.59,694.93,119.43ZM546.51,44Q543.27,31.51,540,19l21.79,14.26-5.18,6a.69.69,0,0,0,.17,1,1,1,0,0,0,.69.13.84.84,0,0,0,.49-.28l5.18-6,8.58,5.62-5.18,6a.68.68,0,0,0,.16,1,1,1,0,0,0,.7.13.9.9,0,0,0,.49-.28l5.18-6,8.59,5.62-5.2,6.06a.68.68,0,0,0,.16,1,1,1,0,0,0,.7.13.87.87,0,0,0,.49-.28l5.2-6.05,8.58,5.62-5.21,6.06a.68.68,0,0,0,.17,1,1,1,0,0,0,.69.13.84.84,0,0,0,.49-.28L593,53.66l8.59,5.62-5.23,6.08a.69.69,0,0,0,.17,1,1,1,0,0,0,.69.13.9.9,0,0,0,.49-.28l5.23-6.08,8.58,5.62-5.24,6.09a.7.7,0,0,0,.17,1,1,1,0,0,0,.7.12.86.86,0,0,0,.49-.27l5.23-6.1,8.59,5.62-5.25,6.11a.67.67,0,0,0,.16,1,1,1,0,0,0,.7.14,1,1,0,0,0,.49-.28l5.25-6.11,2.38,1.55,6.2,4.07-5.26,6.12a.69.69,0,0,0,.17,1,.93.93,0,0,0,.69.12.83.83,0,0,0,.49-.27l5.27-6.13,8.58,5.62L636,91.44a.68.68,0,0,0,.17,1,.91.91,0,0,0,.7.13.79.79,0,0,0,.48-.28l5.28-6.13,8.58,5.62L646,98a.67.67,0,0,0,.17,1,.88.88,0,0,0,.69.13.92.92,0,0,0,.49-.27l5.28-6.16,8.59,5.62-5.3,6.17a.68.68,0,0,0,.17,1,.91.91,0,0,0,.7.13.89.89,0,0,0,.48-.27l5.3-6.17,8.58,5.62-5.3,6.18a.67.67,0,0,0,.16,1,.9.9,0,0,0,.69.13.85.85,0,0,0,.49-.27l5.31-6.19,6.41,4.2,13.45,8.8,1,.66-4.73.94-116.43,23Z" transform="translate(-45.69 -7.93)"/></g><g class="cls-11"><path class="cls-12" d="M645,109l-73.24-48c-.25-.31-1.56-.4-1.46,0q7.68,29.75,15.37,59.49c.09.33,1,.38,1.27.32l58-11.46C645.23,109.36,645.23,109.19,645,109Zm-8.23,1.24L587,120.11,572.1,62.29l42.5,27.83q12.45,8.14,24.89,16.3l3.9,2.55-1.28.25Z" transform="translate(-45.69 -7.93)"/></g><path class="cls-13" d="M506.3,14.31c-1.34.46-3.9.81-5.08,1.8h0L492,19.3c-2.24.77-2.47.76-3.45,2.6l-8.1,15.34a3.35,3.35,0,0,0-3.22.72c-2.11,1.91-3.09,5-4.35,7.4-.79,1.51-.67,2.31.22,3-15.18,28.73-30.88,58.37-46.06,87.1-3.93,7.44,11.9,13.29,15.49,6.5q3.63-6.9,7.28-13.79Q465,99.42,480.13,70.67l8.59-16.29a3.31,3.31,0,0,0,1.81-.44.4.4,0,0,0,.25-.14c1.58-3,6.63-9,2.23-11.55l14.58-27.6C507.81,14.23,506.53,14.22,506.3,14.31ZM481.78,37.62l7.83-14.81c1.18-2.25,1-2.3,3.49-3.17l7.43-2.57-3.78,7.17-8.47,16L482.56,38l-.81-.31S481.78,37.63,481.78,37.62Zm9.05.89.89,1.4c.12.18.49.18.85.1l-.87,1.64-2.08-.84ZM487.3,54.17C474.81,77.84,462,102,449.46,125.68l-1.17,2.21-1.48,2.81-.93,1.75c-.48.92-3.8,7.19-4.61,8.74-3.18,6-16.31,1.2-13-5l2.08-3.92q6-11.3,11.93-22.59l28.92-54.76,3.05-5.78c.05-.09,0-.17-.11-.24.28.13.59.27.94.41l9.8,4a21.91,21.91,0,0,0,2.48.89Zm2-.59c-1.09.81-5.25-1.42-6.13-1.77l-7.38-3c-2.76-1.12-1.77-2.66-.8-4.4l15.52,6.28a1.47,1.47,0,0,0,.51,0C490.3,51.9,489.63,52.91,489.27,53.58Zm2-3.36-16-6.46c.43-.81.83-1.66,1.26-2.49l15.53,6.28a1.47,1.47,0,0,0,.56,0A21,21,0,0,1,491.3,50.22Zm1.61-3.33L477,40.46a15.81,15.81,0,0,1,1.07-1.71c1.56-2.14,4.55,0,6.39.77L488,41a.58.58,0,0,0,.4.16l3.07,1.24C493.49,43.16,493.56,44.94,492.91,46.89Zm.09-7.7-1.15-1.81a.39.39,0,0,0-.34-.15l3-5.71.93,1.48c.09.14.41.17.74.14C495.13,35.16,494.06,37.17,493,39.19Zm3.66-6.93-1.17-1.86a.42.42,0,0,0-.3-.13q1.21-2.31,2.44-4.62l.75-1.43c.48.6.95,1.2,1.43,1.79l.11.08ZM500.49,25l-1.33-1.68a.89.89,0,0,0-.22-.16l2.94-5.56v0a15.42,15.42,0,0,0,1.24,1.56.85.85,0,0,0,.38.16ZM504,18.43a9.82,9.82,0,0,0-1.3-1.59s-.11,0-.15-.07a7,7,0,0,1,3.11-1.48Z" transform="translate(-45.69 -7.93)"/><path class="cls-13" d="M363.44,248l-11.22-14.17a.36.36,0,0,0-.15-.22l-3.38-4.27a.24.24,0,0,0-.13-.22l-25.92-32.72q-8.89-11.22-17.78-22.45c-2.57-3.24-4.91-7.2-8.16-10a2,2,0,0,0-.29-.14,12.19,12.19,0,0,0-1.72-1.64l-14.53-12.39s0,0,0-.06l-10.67-9.09c-.19-.16-1.66-.45-1.46,0l5.86,12.27s0,0,0,0l8,16.8c.41.86,1.18,3.82,2.24,4.54,1.59,3.24,4.76,6.32,7,9.22L308,205.55l25.45,33.39a.35.35,0,0,0,.13.11l2.94,3.87.11.09,10.49,13.77c1.51,2,5.94,2.54,8.41,2.47A8.16,8.16,0,0,0,362.2,256C363.56,254.19,365,249.87,363.44,248ZM303.8,174.17l17.46,22,25.92,32.71c-.3.54-.62,1.06-1,1.57a4.15,4.15,0,0,1-.24.34c-.29.41-.6.8-.92,1.19l-.38.45-45.16-57.74v0c-.71-2.82-1.41-5.65-2.12-8.47,0-.2-.1-.37-.14-.54C299.7,168.29,301.68,171.49,303.8,174.17Zm40.13,59.06-.19.2-.49.48c-.41.38-.85.74-1.29,1.08-.26.2-.53.38-.8.57s-.62.43-1,.62c-.16.1-.33.21-.5.3l-.1.05L294.38,177.7a.11.11,0,0,0,0,0L289,166.46l9,8.16.06,0Zm-59.21-60.69c-.78-1.64-1.56-3.27-2.35-4.91q-2.55-5.35-5.11-10.7l-1.61-3.36c-.14-.3-.23-.42-.22-.48l.31-.13c.14,0,.33-.1.59-.2a10.37,10.37,0,0,0,3.27-2.27l13.3,11.34c1.92,1.63,2.43,2,3,4.24l1.71,6.87q-4.83-4.38-9.68-8.74a1.7,1.7,0,0,0-.62-.21c-.39-.11-.82-.16-.81,0a.11.11,0,0,0,0,.14q3,6.36,6.07,12.71l-7.22-2.75C285.8,174.27,284.94,173,284.72,172.54Zm49.57,65.91-4.35-5.71-17.14-22.5-18.66-24.5-6.26-8.2c-.63-.83-1.44-1.68-2-2.58l7.15,2.72L338.65,237a17,17,0,0,1-2.68,1.07l-.29.08c-.44.13-.91.22-1.37.31Zm1.63,2.2-1-1.35H335a7.5,7.5,0,0,0,2.62-.56,20.53,20.53,0,0,0,7.13-4.29l0,0a19.35,19.35,0,0,0,3.46-4.26l2.54,3.21a19.08,19.08,0,0,1-13.4,9.16Zm24.55,15.2c-2,2.65-5.77,2.91-9,2.29a19.11,19.11,0,0,1-2.8-.81l-.17-.05a1.08,1.08,0,0,0-.13-.19l-6-7.85-3.06-4c-.34-.45-.68-.91-1-1.36s-.38-.44-.41-.49l.19,0a3.77,3.77,0,0,0,.64,0c5.07-.56,9.4-3.87,12.18-7.56l.12-.16c.24-.33.48-.67.7-1l9.88,12.48C363.61,249.56,362.26,253.43,360.47,255.85Z" transform="translate(-45.69 -7.93)"/><path class="cls-13" d="M975.42,43.85,946.51,24.67a1.28,1.28,0,0,0-.62-.09c-.34,0-.69,0-.81.18L881.64,97.84l-62,71.45c-.07.09,0,.17.08.21-.3-.2-2.56,2.67-3,3.13-.07.09,0,.17.09.22L845.74,192a1.45,1.45,0,0,0,1.44-.09l62.73-72.3,65.51-75.48.08-.1C975.57,44,975.49,43.9,975.42,43.85Zm-3.57,2.54-29.32,33.8q-42.69,49.17-85.35,98.35l-10.95,12.62L830.17,180.5l-10.07-6.68-1.9-1.26c.3.2,2.56-2.67,3-3.13.07-.08,0-.16-.08-.21s1.83-1.89,4.72-5.16l0,0,9.18,6.13a1.11,1.11,0,0,0,1.43-.17.75.75,0,0,0,.2-.41.82.82,0,0,0-.39-.84l-9.18-6.13h0c2.44-2.77,5.5-6.27,8.94-10.22h0l9.18,6.14a1.12,1.12,0,0,0,1.43-.17.78.78,0,0,0,.2-.42.84.84,0,0,0-.39-.83L837.23,151h0l8.91-10.24,0,0,9.18,6.13a1.13,1.13,0,0,0,1.43-.16.82.82,0,0,0,.2-.42.84.84,0,0,0-.39-.84l-9.18-6.13,0,0,8.9-10.27s0,.06.07.08l9.18,6.13a1.13,1.13,0,0,0,1.44-.17.87.87,0,0,0,.2-.41.84.84,0,0,0-.39-.84l-9.19-6.13s-.07,0-.11,0l8.91-10.29a.74.74,0,0,0,.13.12l9.18,6.14a1.12,1.12,0,0,0,1.43-.17.82.82,0,0,0,.2-.42.86.86,0,0,0-.39-.84l-9.18-6.13a1,1,0,0,0-.18-.08l8.92-10.32a.8.8,0,0,0,.18.19l9.18,6.13a1.13,1.13,0,0,0,1.44-.16.91.91,0,0,0,.2-.42.84.84,0,0,0-.4-.84l-9.17-6.13a1,1,0,0,0-.27-.11l7-8.06,2-2.28a1.09,1.09,0,0,0,.24.24l9.17,6.13a1.13,1.13,0,0,0,1.44-.17.87.87,0,0,0,.2-.41.85.85,0,0,0-.39-.84l-9.18-6.13a1.11,1.11,0,0,0-.34-.14l9-10.36a1,1,0,0,0,.27.28l9.18,6.13a1.12,1.12,0,0,0,1.44-.17.93.93,0,0,0,.2-.41.87.87,0,0,0-.4-.84l-9.18-6.13a1.14,1.14,0,0,0-.38-.16l9-10.38a.93.93,0,0,0,.3.33l9.17,6.13a1.13,1.13,0,0,0,1.44-.17.75.75,0,0,0,.2-.41.84.84,0,0,0-.4-.84l-9.18-6.13a1,1,0,0,0-.44-.16L917,59a.86.86,0,0,0,.31.38l9.18,6.14a1.12,1.12,0,0,0,1.43-.17.79.79,0,0,0,.2-.41.83.83,0,0,0-.39-.84L918.54,58a1.13,1.13,0,0,0-.51-.16l9.1-10.49a.81.81,0,0,0,.34.44l9.17,6.13a1.12,1.12,0,0,0,1.44-.17.83.83,0,0,0,.2-.41.85.85,0,0,0-.4-.84l-9.17-6.13a1.12,1.12,0,0,0-.58-.17l9.14-10.53a.94.94,0,0,0,.36.49l9.18,6.13a1.12,1.12,0,0,0,1.43-.17.92.92,0,0,0,.2-.41.85.85,0,0,0-.39-.84l-9.18-6.14a1.11,1.11,0,0,0-.64-.16l7.8-9,22.31,14.81,4.68,3.1c.65.44.92.53.88.58Z" transform="translate(-45.69 -7.93)"/><path class="cls-13" d="M984.17,108.37a200.12,200.12,0,0,0-17.58,16.7c-6.72,7.11-13.05,19.29-8.09,28.46-2.72-.43-4.64,3.23-2.7,4.52l-4.67,12.27s0,0,0,.05,0,0,0,0Q934.28,214.68,917.43,259c-2,5.25,3.92,8.46,9,7.74a1.8,1.8,0,0,0,.56.16c.35,0,.28-.13.06-.28a7.82,7.82,0,0,0,3-1.29c.2-.06.3-.14.31-.23a6.21,6.21,0,0,0,1.7-2.19l29.73-90,0-.08h0q2.37-6.27,4.75-12.54c0-.07,0-.13-.1-.19a2.4,2.4,0,0,0,1.43-1.53c.4-1.24.33-2.65-1.31-3.05h0a2.06,2.06,0,0,0,.85-.09c10.73-5.63,14.39-17.29,14.72-27.56.21-6.65,1.88-13,3.54-19.44C985.75,107.93,984.38,108.19,984.17,108.37ZM959.5,174.76c-.93,2.83-1.87,5.66-2.8,8.49q-4.77,14.4-9.52,28.8-8.25,25-16.49,49.91c-.08.25-.17.5-.25.76-2.84,6-13.89,2.79-11.49-3.51.19-.49.37-1,.56-1.48,1-2.56,2-5.12,2.93-7.69L933,222.35l19.26-50.61c.1-.28.2-.55.31-.83l.07,0c2.43.56,4.85,1.15,7.27,1.74.17.06.28.11.27.14C959.93,173.46,959.72,174.11,959.5,174.76Zm.85-2.56q-3.79-.93-7.6-1.82l4.5-11.82,7,1.73.07,0,.07,0h.19c.1,0,.18,0,.27,0Q962.61,166.28,960.35,172.2Zm4.7-12.39-4.87-1.2-2.57-.64c-1.86-.46-.83-3,.07-3.75a1.66,1.66,0,0,1,1.13-.09l0,.06c.1.15.49.17.85.11,1.43.33,3.14,1,3.68,1.09l2.3.57C967.21,156.34,966.52,159.83,965.05,159.81Zm15.73-35.3c-.6,5.41-.51,10.53-2.38,15.81-2.08,5.85-6.09,11.63-12.2,14.83-.18.09-.22.16-.17.22l-5.7-1.41s0-.07,0-.1c-6-9.83,1.8-22.89,9.25-30.31,4.56-4.55,9.17-9.18,14.11-13.44A102.29,102.29,0,0,0,980.78,124.51Z" transform="translate(-45.69 -7.93)"/><path class="cls-13" d="M808.31,42.89a3,3,0,0,0,.64-2.25c-.07-2-1.84-2.49-3.77-2.89l-29.72-6.26c-2.32-.49-4.53-.45-5.48,1.82-1,2.47,1.63,3.29,3.94,3.78l29.71,6.26C805.68,43.78,807.41,43.84,808.31,42.89Z" transform="translate(-45.69 -7.93)"/><path class="cls-13" d="M829.45,52l-15.63-3.38c1.33-4.79,4.08-11.26-3.6-12.88l-19.57-4.12L772.3,27.76c-7.48-1.58-8.85,4.92-10.13,9.71l-6.46-1.4c.62-2.25.61-4.19-2.24-5.18a53.14,53.14,0,0,0-5.94-1.29c-4.36-.94-8.14-1.82-9.64,2.62l-.25,0c-2-.44-4.28-1.1-6.39-.75a9.35,9.35,0,0,0-8.09,7.29q-3.85,13.68-7.72,27.36-1.92,6.81-3.85,13.61c-.82,2.92-1.88,5.57-.79,8.58,1.9,5.23,11.16,5.86,16.28,7l68.8,14.86,18.38,4c5.84,1.27,11.92.87,14.07-5.11l13-46.09C843.47,55.33,835.75,53.36,829.45,52ZM765.6,31c1.24-3.2,5.06-2.91,8-2.3l17.85,3.76,17,3.59c7.59,1.6,5.32,7.38,3.92,12.27l-11.8-2.55-36.93-8A70.17,70.17,0,0,1,765.6,31ZM743,29.35l4.73,1,4.09.89c2.87.62,2.93,2.53,2.44,4.5l-15-3.23C739.74,31,740.32,28.77,743,29.35Zm96.86,33.06c-.46,2.23-1.25,4.44-1.87,6.64q-4.32,15.27-8.63,30.56c-.87,3.06-1.73,6.13-2.6,9.19-3.15,8.78-15.23,4.07-22.21,2.57L770.61,104l-52.8-11.41c-6.56-1.42-6.3-7-5.06-11.38q1.77-6.25,3.53-12.5Q720.35,54.36,724.4,40c1.21-4.27,3.48-9.33,10.26-7.87l3.11.67c.09.13.39.17.7.15l2,.43,13.75,3a.94.94,0,0,0,.7.15l7.2,1.55a1.24,1.24,0,0,0,.61.14L770,39.76l42.24,9.12a1.3,1.3,0,0,0,.63.14L832,53.14C837.13,54.25,840.94,57.3,839.87,62.41Z" transform="translate(-45.69 -7.93)"/><path class="cls-13" d="M784.07,51.27c-13.91-2.73-27.64,4.1-31.4,16.27C749,79.35,758.34,92,771.83,94.68c13.91,2.72,27.64-4.1,31.4-16.27C806.29,66.48,798,54,784.07,51.27Zm17.62,26.86c-3.61,11.68-17,19-30.62,15.8-12.88-3-19.66-15.19-16.87-26.11,3-11.82,17.48-18.91,30.62-15.81C797.7,55.06,804.49,67.21,801.69,78.13Z" transform="translate(-45.69 -7.93)"/><path class="cls-13" d="M782.48,56.91c-10.14-2.19-20.39,3.23-22.9,12.1s3.69,17.84,13.83,20,20.4-3.23,22.9-12.1S792.63,59.11,782.48,56.91Z" transform="translate(-45.69 -7.93)"/><polygon class="cls-13" points="768.81 50.81 783.97 53.94 785.6 47.89 770.45 44.77 768.81 50.81"/><g class="cls-11"><path class="cls-12" d="M435.34,118.31,400.93,20.89c-1.25-3.55-2-8.63-4.57-11.68-1.93-2.26-5.61-1-8.05-.32L373.09,13,356,17.62c-2.08.56-6.39,1-7.94,2.63-3,3.08.91,9.5,2.07,12.76.84,2.4,1.69,4.81,2.54,7.21q-2.76-3.27-5.51-6.53c-1.69-2-4.51-7.07-7.79-7.5s-5.23,1.2-7.73,2.81L318,37.78l-13.83,8.93c-2.1,1.35-6.43,3.3-5.44,6.15a6.78,6.78,0,0,0,1.17,2L281,72.22c-4.22,3.87,2.24,7.57,5.18,10l48.28,40.3,39,32.55c5.23,4.37,10.21-2.24,13.49-5.28l21.92-20.3.22-.21.08,0,18.65-5C431.34,123.3,436.27,122.64,435.34,118.31ZM303.71,48.24l12.52-8.09,14.56-9.39c2.23-1.44,7.23-6,10-2.75q6.48,7.69,13,15.39,2.16,6.15,4.34,12.3l-5.76-6.81a1.45,1.45,0,0,0-1.43-.11L320.5,68.43c-.07,0-.16.12-.09.21l10.93,12.94a1.45,1.45,0,0,0,1.43.11l28.12-18.15,1.31,3.72L334.67,85c-.07,0-.37.23-.27.35L345.94,99c.24.29,1,0,1.2-.15L368.5,85.1c.45,1.29.91,2.57,1.36,3.85l-20.75,13.39c-.13.08-.21.18-.11.31l11.54,13.66c.23.28,1.08-.06,1.3-.2l14.34-9.26c.44,1.23.87,2.47,1.31,3.7l-13.89,9c-.08,0-.15.13-.08.22l11.54,13.66a1.43,1.43,0,0,0,1.43.07l7.4-4.77,1,2.88c1.19,3.36,5,2.92,8,2.12l12.46-3.37L384,144.12c-2.29,1.48-5.05,2.5-7.09.08l-4.26-5-9.56-11.32s0,0,0,0L360,124.16s0-.09-.1-.13l-11.61-13.74c0-.05,0-.09-.1-.13l-3-3.55c0-.07,0-.12-.13-.15L333.44,92.73c0-.06,0-.1-.11-.13l-.79-.93L316.22,72.33h0q-5.55-6.57-11.09-13.13s0,0,0,0l-3.71-4.4.05,0c.16-.14,0-.19-.25-.2C299,51.77,301.27,49.81,303.71,48.24ZM359.27,59c.43,1.2.85,2.41,1.28,3.61L332.29,80.81l-8.65-10.26c-.73-.85-1.95-1.71-1.39-2.07l4.71-3,24.45-15.78Zm3.16,8.94q2.93,8.27,5.84,16.54L347.06,98.14l-8.47-10-1.95-2.31c-.52-.61-.53-.9-1-.62l3.49-2.25Zm7.68,21.75,5.82,16.48-14.33,9.25-6.33-7.49q-2-2.43-4.09-4.84c-.84-1-1.08-.48-.05-1.15Zm7.71,21.83q2.88,8.13,5.74,16.26L376,132.61l-10.79-12.78c-.26-.3.46-.51,1.25-1l4.86-3.14ZM373.18,142l-.12.05c-.51.43-1,.86-1.54,1.28l-9.5-7.92c-.35-.3-3.71-3.13-3.73-3.1l3.92-3.59,5.92,7C369.82,137.69,371.44,139.89,373.18,142Zm-14.76-17.77-4.65,4.25L342.45,119c-2.14-1.79-2.25-1.27-.19-3.16l5.14-4.71c.52.62,1,1.23,1.55,1.85Q353.69,118.57,358.42,124.18Zm-14.76-17.49-7.57,6.93L323.35,103c-.71-.6-.79-.26-.17-.82L327,98.71l5.62-5.15ZM328.79,89.07,318.18,98.8c-3-2.52-12.33-10.38-12.46-10.27l12.75-11.68ZM314.64,72.32,301.23,84.61l-7-5.83L289.68,75c-.85-.71-1.15-.52-.45-1.17l15-13.78L307,63.28Zm73.75,74.93L380,155c-2.51,2.33-5-.3-6.49-1.56l-43.28-36.12-43.2-36c-3.46-2.89-8.41-5.69-3.81-9.9l17.27-15.82.85,1,2.21,2.62-16.37,15a.1.1,0,0,0,0,.14L300.5,85.42a1.38,1.38,0,0,0,1.51,0l13.36-12.23,2.33,2.76L304.2,88.3c-.08.07,0,.16.06.21l13.31,11.12a1.45,1.45,0,0,0,1.44,0L329.57,90l2.37,2.82-10.68,9.79c-.06.06-.11.15,0,.22l14,11.73a1.45,1.45,0,0,0,1.43-.17l7.58-6.94,2.42,2.86q-3.84,3.53-7.69,7c-.06.06-.15.14-.06.22L353,129.29a1.48,1.48,0,0,0,1.44,0l4.66-4.27,2.38,2.81-4.79,4.38a.12.12,0,0,0,0,.15l14.06,11.73a1.48,1.48,0,0,0,1.43.05l1.65-1.37c.7.8,1.43,1.58,2.2,2.3,4.77,4.46,11.35-1.91,15.18-4.39l14.12-9.11Zm35.93-22.69-16.72,4.51a1,1,0,0,0-.44.08l-.11.07-.18.05-14.49,3.91c-2.81.76-5.27.06-6.19-2.54Q378,107.59,369.91,84.53L350.44,29.42l-1.81-5.13c-1.21-3.44,1.91-4.56,4.89-5.36l32.33-8.73c2.87-.78,8.52-3.34,9.94.68.47,1.34.95,2.68,1.42,4q3.87,11,7.73,21.89l21.78,61.66q3.52,10,7.06,20C434.74,123,427.92,123.58,424.32,124.56Z" transform="translate(-45.69 -7.93)"/><path class="cls-12" d="M317.38,65.08c.26.31,1.13.23,1.44,0l30.43-19.65a.16.16,0,0,0,.09-.1.09.09,0,0,0,0-.11q-5.47-6.47-10.94-13c-.25-.3-1.13-.23-1.43,0L306.53,51.91c-.08.05-.15.14-.08.22ZM308.3,51.9l4.7-3,24.41-15.75,10.32,12.21-29.37,19Q314,59.12,309.67,54C308.94,53.1,307.72,52.27,308.3,51.9Z" transform="translate(-45.69 -7.93)"/><path class="cls-12" d="M397.5,29.37,392.07,14c-.12-.34-.91-.26-1.19-.18l-36.15,9.76c-.09,0-.42.11-.38.25q2.72,7.7,5.43,15.38c.12.34.92.26,1.2.18l36.08-9.74C397.33,29.58,397.54,29.49,397.5,29.37Zm-36.31,9.3q-2.2-6.26-4.42-12.51c-.25-.71-.49-1.41-.74-2.1a.22.22,0,0,0-.13-.15l.13,0,5.59-1.51,29-7.85,5.22,14.78Z" transform="translate(-45.69 -7.93)"/><path class="cls-12" d="M404.41,48.86,399,33.48c-.08-.24-.67-.12-.84-.07L362,43.17c-.16,0-.75.21-.67.46L366.75,59c.09.24.67.12.85.07l35.9-9.69C404,49.32,404.49,49.09,404.41,48.86Zm-28.49,7.39L369.64,58l-1.48.4s0,0,0,0q-2.32-6.57-4.64-13.14l-.6-1.69,4.75-1.28L385,37.53l12.56-3.39.58,1.66q1.37,3.83,2.71,7.66L402.81,49Z" transform="translate(-45.69 -7.93)"/><path class="cls-12" d="M411.44,69.78l.1,0a.23.23,0,0,0,.09-.07.11.11,0,0,0,0,0h0a.24.24,0,0,0,0-.08q-2.88-8.11-5.74-16.24c-.11-.32-1-.27-1.3-.2l-36.14,9.76c-.15,0-.28.11-.23.26L374,79.34c.11.33,1,.27,1.3.2l36.14-9.76Zm-36.11,9q-2.19-6.21-4.39-12.43l-1-2.79a.54.54,0,0,0-.19-.31l.11,0,5.19-1.41,29.52-8,5.49,15.55Z" transform="translate(-45.69 -7.93)"/><path class="cls-12" d="M418.71,90.25l.1,0,.07,0a.1.1,0,0,0,0-.1l-5.73-16.23c-.14-.39-1-.31-1.34-.22l-36.14,9.76c-.06,0-.27.1-.23.19l5.73,16.23c.14.39,1,.31,1.33.22l36.15-9.76Zm-36.12,9-4.38-12.41-1-2.78c-.19-.56-.5-.29-.1-.4l5.2-1.41,29.48-8q2.76,7.8,5.51,15.58Z" transform="translate(-45.69 -7.93)"/><path class="cls-12" d="M419.23,94.11l-36.14,9.76c-.09,0-.42.12-.37.26l5.73,16.23c.12.34.92.25,1.2.17l36.06-9.74a1.11,1.11,0,0,0,.34-.12h0c.08,0,.13-.1.11-.16l-5.73-16.23C420.31,93.94,419.51,94,419.23,94.11Zm-29.37,25.71-4.41-12.48-1-2.8a.51.51,0,0,0-.24-.32h0l5.19-1.41,29.6-8,5.52,15.63Z" transform="translate(-45.69 -7.93)"/></g><path class="cls-14" d="M177.73,523.56a.69.69,0,0,1,.1-.59,55.75,55.75,0,0,1,5.28-6.55,96,96,0,0,0,14.73-32.24c-.72-5.14-1.75-10-4.45-14.7a8.12,8.12,0,0,1-2.12.58,73.35,73.35,0,0,1-29.28-1.9c-.81-.23-1.65-.42-2.46-.68-11-3.6-20.89-8.58-21.57-19.91-.37-6.14,4.09-10.21,8.19-14.58l.13-.14c4.21-4.34,12.66-7.26,19.1-6.68,7.2.64,12.87,5.46,16.87,10.37a62.21,62.21,0,0,1,12.27,25.2c.6,2.73,1.41,5.05.37,6.59a34.24,34.24,0,0,1,4,10.77,132.86,132.86,0,0,0,1.6-29.35l-1.62-2.3c-4.83-6.86-9.82-14.06-13.25-21.42-5.27-11.27-6.84-22.93,1.75-34.34,10.43-11.32,22.46-11.64,33.06-.88,10.47,8.93,10.63,22.46,3.41,35.57-4.5,8.21-11.91,16.23-21.54,22.87a136.06,136.06,0,0,1-2.69,33.87c.1.61.19,1.23.27,1.85s-.4.81-.89.8a94.06,94.06,0,0,1-10.31,25.39,44.25,44.25,0,0,1,12.73-7.56c.24-1.46,2.09-2.66,4-4.22a66.45,66.45,0,0,1,22.78-11.71c5.54-1.58,12.15-2.36,17.4.37,4.7,2.43,8.75,8.12,9.12,12.9a.86.86,0,0,0,0,.16c.27,4.77,1,9.48-2.81,13.48-7,7.38-16.5,6.45-26.06,4-.69-.17-1.37-.41-2.06-.61a55.29,55.29,0,0,1-14.11-6.43,49.86,49.86,0,0,1-6.83-5.12,6.38,6.38,0,0,1-1-1.17c-4.6,1.85-8.66,5-12.2,7.94a74.68,74.68,0,0,0-6,5.56c-8.52,11.55-19.73,21.44-27,33.64-10.23,17.07-8.56,35.51,3.74,51.35.7.9-1,1.74-1.66.84-10.42-13.4-13.73-28.65-8-44.19C155.91,546.15,168,535.49,177.73,523.56Z" transform="translate(-45.69 -7.93)"/><path class="cls-14" d="M235.59,479.48a50.61,50.61,0,0,1-8.25-1,69.22,69.22,0,0,1-13.13-4.08c-3.23-1.34-7.54-2.46-9.82-4.41-1.75-1.5-2.28-3.49-.21-6.45,2.73-3.9,7.07-7.15,11.13-9.95,2.18-1.5,4.55-3,7.07-4.46,7.17-4.1,15.5-7.45,23.72-7.44,27,0,22.35,29.87,1.51,36.28A37.08,37.08,0,0,1,235.59,479.48Z" transform="translate(-45.69 -7.93)"/><path class="cls-14" d="M173.88,484.16l2,.9c4.64,2.13,10.2,4.07,14.09,7.39,12.17,10.37-22.64,18.09-29.47,19.23a40.91,40.91,0,0,1-14,.1c-12.4-2.17-14.7-14.1-11.18-23a22,22,0,0,1,3.11-5.41C146.39,473.27,163.37,479.49,173.88,484.16Z" transform="translate(-45.69 -7.93)"/><path class="cls-15" d="M139.12,501.28a.72.72,0,0,0-.12-.63,57.75,57.75,0,0,0-5.66-7A103,103,0,0,1,117.54,459c.78-5.51,1.88-10.77,4.78-15.77a8.89,8.89,0,0,0,2.28.63,79.1,79.1,0,0,0,31.4-2c.88-.25,1.78-.46,2.65-.74,11.84-3.85,22.41-9.2,23.14-21.36.4-6.58-4.39-10.95-8.79-15.64l-.14-.15c-4.52-4.66-13.58-7.79-20.49-7.17-7.72.69-13.81,5.86-18.1,11.13a66.58,66.58,0,0,0-13.16,27c-.65,2.92-1.52,5.42-.4,7.07a36.9,36.9,0,0,0-4.3,11.55,143,143,0,0,1-1.71-31.49l1.74-2.46c5.18-7.37,10.53-15.09,14.22-23,5.64-12.11,7.32-24.6-1.88-36.85-11.2-12.15-24.1-12.49-35.48-.94C82.07,368.44,81.9,383,89.64,397c4.84,8.81,12.78,17.41,23.12,24.53a146.31,146.31,0,0,0,2.88,36.35c-.1.65-.2,1.32-.29,2s.43.87,1,.86A100.85,100.85,0,0,0,127.37,488a47.29,47.29,0,0,0-13.66-8.11c-.25-1.57-2.24-2.86-4.31-4.52a70.1,70.1,0,0,0-14.85-9,70.85,70.85,0,0,0-9.6-3.53c-5.94-1.69-13-2.53-18.66.39-5.05,2.61-9.39,8.71-9.78,13.85a.91.91,0,0,0,0,.17c-.3,5.11-1,10.17,3,14.47,7.47,7.91,17.7,6.91,28,4.33.74-.19,1.47-.44,2.21-.66a59.28,59.28,0,0,0,15.14-6.9,53.31,53.31,0,0,0,7.33-5.5,6.56,6.56,0,0,0,1.09-1.25c4.93,2,9.29,5.33,13.09,8.52a80.17,80.17,0,0,1,6.43,6c9.14,12.39,21.17,23,29,36.09,11,18.31,9.18,38.1-4,55.09-.75,1,1,1.87,1.78.91,11.17-14.38,14.73-30.74,8.61-47.41C162.53,525.52,149.57,514.09,139.12,501.28Z" transform="translate(-45.69 -7.93)"/><path class="cls-15" d="M214.13,510.32a18.92,18.92,0,0,0-4.1-5.93c-9.5-9.19-22.74-7.67-34.7-3.09a101.5,101.5,0,0,0-16.23,8.13c-3.21,2-6.9,3-5.66,6.79.93,2.82,4.92,5,7.4,6.62a65.57,65.57,0,0,0,24.5,9.65,49.72,49.72,0,0,0,10.53.74C209.36,532.56,219.21,521.75,214.13,510.32Z" transform="translate(-45.69 -7.93)"/><path class="cls-15" d="M77,454a54.66,54.66,0,0,0,8.86-1A73.61,73.61,0,0,0,100,448.58c3.46-1.43,8.09-2.63,10.53-4.73,1.88-1.6,2.46-3.74.23-6.91-2.94-4.19-7.58-7.68-11.94-10.69-2.34-1.61-4.89-3.24-7.59-4.77-7.7-4.4-16.63-8-25.45-8-28.93.05-24,32.05-1.63,38.92A39.81,39.81,0,0,0,77,454Z" transform="translate(-45.69 -7.93)"/><path class="cls-15" d="M143.25,459l-2.13,1c-5,2.29-11,4.36-15.12,7.93-13.06,11.13,24.28,19.4,31.61,20.63a43.87,43.87,0,0,0,15,.11c13.3-2.33,15.77-15.13,12-24.63a24,24,0,0,0-3.34-5.82C172.75,447.32,154.53,454,143.25,459Z" transform="translate(-45.69 -7.93)"/><path class="cls-15" d="M140.1,510.62c-4.39-3.07-10.12-5-15.39-6.5-2.82-.82-5.85-1.6-9-2.24-9-1.85-18.76-2.6-27,0-27.19,8.64-10.1,37.27,13.6,37.09A39.15,39.15,0,0,0,115,536.67a50.34,50.34,0,0,0,7.93-3.6,66.13,66.13,0,0,0,11.55-8.31c2.7-2.37,6.59-4.88,8.06-7.57C143.71,515.12,143.43,512.94,140.1,510.62Z" transform="translate(-45.69 -7.93)"/><path class="cls-16" d="M169.19,547.71a109.63,109.63,0,0,0-6-26.38,49.7,49.7,0,0,0,11-21.4c2.39-11.34-1-21.65-11.09-26.57-10.67-6.29-19.78-3.86-25.06,6.7-3.84,10.29.13,18.9,6.84,26.57,4.38,5,9.91,9.59,15.24,14l1.79,1.47a107.47,107.47,0,0,1,5.77,22.72,29.5,29.5,0,0,0-5.63-7.5c.44-1.37-.74-3-1.85-5a53,53,0,0,0-8.84-11.48,55,55,0,0,0-6.54-5.55c-4.23-3-9.71-5.67-15.36-4.85-5.07.73-10.83,4.5-13,8.59a.54.54,0,0,0-.07.13c-2.09,4.09-4.54,8-2.79,12.64,3.22,8.53,11.94,10.55,21.24,11.28.68.05,1.36.05,2,.07a55.56,55.56,0,0,0,14.85-1.42,53.48,53.48,0,0,0,8-2.46,6.23,6.23,0,0,0,1.48-.83,33.59,33.59,0,0,1,6.91,10.42,70.67,70.67,0,0,1-1.76,20.86l1.45.28a71.39,71.39,0,0,0,1.57-20.14C169.73,549.77,169.41,548.17,169.19,547.71Z" transform="translate(-45.69 -7.93)"/><path class="cls-16" d="M194.86,507.6c-6.28,1.49-11.85,5.57-16.36,10-1.58,1.55-3,3.14-4.34,4.68-2.44,2.89-5,6.16-6.13,9.65-.89,2.64,0,4.06,1.7,4.89,2.2,1.07,5.76,1.14,8.55,1.57a56.26,56.26,0,0,0,11,.73,39.6,39.6,0,0,0,6.53-.77,27.57,27.57,0,0,0,8.84-3.32C219.06,526.36,215.48,502.72,194.86,507.6Z" transform="translate(-45.69 -7.93)"/><path class="cls-17" d="M103.72,543.78c0,51.1,25.17,75.71,63.95,75.71s64-24.61,64-75.71" transform="translate(-45.69 -7.93)"/><rect class="cls-18" x="58.03" y="544.81" width="127.9" height="1.68"/><polygon class="cls-19" points="935.77 350.57 985.34 345.01 1009.8 511.82 960.24 517.38 935.77 350.57"/><polygon class="cls-20" points="941.04 349.98 985.34 345.01 1009.8 511.82 965.51 516.79 941.04 349.98"/><g class="cls-21"><g class="cls-22"><polygon class="cls-23" points="998.03 507.43 997.83 506.07 1011.66 504.52 1011.86 505.88 998.03 507.43"/><polygon class="cls-23" points="995.51 490.27 995.31 488.91 1009.14 487.36 1009.34 488.72 995.51 490.27"/><polygon class="cls-23" points="992.99 473.11 992.79 471.74 1006.63 470.19 1006.83 471.56 992.99 473.11"/><polygon class="cls-23" points="990.48 455.94 990.28 454.58 1004.11 453.03 1004.31 454.39 990.48 455.94"/><polygon class="cls-23" points="987.96 438.78 987.76 437.42 1001.59 435.87 1001.79 437.23 987.96 438.78"/><polygon class="cls-23" points="985.44 421.62 985.25 420.26 999.08 418.71 999.28 420.07 985.44 421.62"/><polygon class="cls-23" points="982.93 404.46 982.73 403.09 996.56 401.54 996.76 402.91 982.93 404.46"/><polygon class="cls-23" points="980.41 387.3 980.21 385.93 994.04 384.38 994.24 385.75 980.41 387.3"/><polygon class="cls-23" points="977.89 370.13 977.69 368.77 991.52 367.22 991.72 368.58 977.89 370.13"/><polygon class="cls-23" points="975.38 352.97 975.17 351.61 989 350.05 989.21 351.42 975.38 352.97"/><polygon class="cls-23" points="1002.67 504.04 1002.58 503.36 1011.35 502.38 1011.45 503.06 1002.67 504.04"/><polygon class="cls-23" points="1002.21 500.86 1002.11 500.18 1010.88 499.2 1010.98 499.88 1002.21 500.86"/><polygon class="cls-23" points="1001.74 497.68 1001.64 497 1010.42 496.02 1010.51 496.7 1001.74 497.68"/><polygon class="cls-23" points="1001.27 494.5 1001.18 493.82 1009.95 492.84 1010.05 493.52 1001.27 494.5"/><polygon class="cls-23" points="1000.81 491.32 1000.71 490.64 1009.48 489.66 1009.58 490.34 1000.81 491.32"/><polygon class="cls-23" points="1000.17 487 1000.07 486.31 1008.85 485.33 1008.95 486.01 1000.17 487"/><polygon class="cls-23" points="999.71 483.82 999.61 483.14 1008.38 482.15 1008.48 482.83 999.71 483.82"/><polygon class="cls-23" points="999.24 480.64 999.14 479.96 1007.91 478.97 1008.01 479.65 999.24 480.64"/><polygon class="cls-23" points="998.77 477.46 998.68 476.78 1007.45 475.79 1007.55 476.48 998.77 477.46"/><polygon class="cls-23" points="998.31 474.28 998.21 473.6 1006.98 472.62 1007.08 473.3 998.31 474.28"/><polygon class="cls-23" points="997.68 470.02 997.58 469.34 1006.36 468.36 1006.46 469.04 997.68 470.02"/><polygon class="cls-23" points="997.22 466.84 997.12 466.16 1005.89 465.18 1005.99 465.86 997.22 466.84"/><polygon class="cls-23" points="996.75 463.67 996.65 462.98 1005.42 462 1005.52 462.68 996.75 463.67"/><polygon class="cls-23" points="996.29 460.49 996.19 459.81 1004.96 458.82 1005.06 459.5 996.29 460.49"/><polygon class="cls-23" points="995.82 457.31 995.72 456.63 1004.49 455.64 1004.59 456.32 995.82 457.31"/><polygon class="cls-23" points="995.19 452.98 995.09 452.3 1003.86 451.31 1003.96 452 995.19 452.98"/><polygon class="cls-23" points="994.72 449.8 994.62 449.12 1003.39 448.13 1003.49 448.81 994.72 449.8"/><polygon class="cls-23" points="994.25 446.62 994.15 445.94 1002.93 444.96 1003.03 445.64 994.25 446.62"/><polygon class="cls-23" points="993.79 443.44 993.69 442.76 1002.46 441.78 1002.56 442.46 993.79 443.44"/><polygon class="cls-23" points="993.32 440.26 993.22 439.58 1001.99 438.6 1002.09 439.28 993.32 440.26"/><polygon class="cls-23" points="992.59 435.25 992.49 434.57 1001.26 433.58 1001.36 434.27 992.59 435.25"/><polygon class="cls-23" points="992.12 432.07 992.02 431.39 1000.79 430.4 1000.89 431.09 992.12 432.07"/><polygon class="cls-23" points="991.65 428.89 991.55 428.21 1000.33 427.23 1000.43 427.91 991.65 428.89"/><polygon class="cls-23" points="991.19 425.71 991.09 425.03 999.86 424.05 999.96 424.73 991.19 425.71"/><polygon class="cls-23" points="990.72 422.54 990.62 421.85 999.39 420.87 999.49 421.55 990.72 422.54"/><polygon class="cls-23" points="990.09 418.21 989.99 417.52 998.76 416.54 998.86 417.22 990.09 418.21"/><polygon class="cls-23" points="989.62 415.03 989.52 414.35 998.29 413.36 998.39 414.04 989.62 415.03"/><polygon class="cls-23" points="989.15 411.85 989.05 411.17 997.82 410.18 997.92 410.87 989.15 411.85"/><polygon class="cls-23" points="988.69 408.67 988.59 407.99 997.36 407 997.46 407.69 988.69 408.67"/><polygon class="cls-23" points="988.22 405.49 988.12 404.81 996.89 403.82 996.99 404.51 988.22 405.49"/><polygon class="cls-23" points="987.6 401.23 987.5 400.55 996.27 399.57 996.37 400.25 987.6 401.23"/><polygon class="cls-23" points="987.13 398.06 987.03 397.37 995.8 396.39 995.9 397.07 987.13 398.06"/><polygon class="cls-23" points="986.66 394.88 986.56 394.2 995.34 393.21 995.43 393.89 986.66 394.88"/><polygon class="cls-23" points="986.2 391.7 986.1 391.01 994.87 390.03 994.97 390.71 986.2 391.7"/><polygon class="cls-23" points="985.73 388.52 985.63 387.84 994.4 386.85 994.5 387.53 985.73 388.52"/><polygon class="cls-23" points="985.1 384.19 985 383.51 993.77 382.52 993.87 383.2 985.1 384.19"/><polygon class="cls-23" points="984.63 381.01 984.53 380.33 993.3 379.34 993.4 380.02 984.63 381.01"/><polygon class="cls-23" points="984.16 377.83 984.06 377.15 992.84 376.17 992.94 376.85 984.16 377.83"/><polygon class="cls-23" points="983.7 374.65 983.6 373.97 992.37 372.99 992.47 373.67 983.7 374.65"/><polygon class="cls-23" points="983.23 371.48 983.13 370.79 991.9 369.81 992 370.49 983.23 371.48"/><polygon class="cls-23" points="982.55 366.8 982.45 366.12 991.22 365.14 991.32 365.82 982.55 366.8"/><polygon class="cls-23" points="982.08 363.63 981.98 362.94 990.75 361.96 990.85 362.64 982.08 363.63"/><polygon class="cls-23" points="981.62 360.44 981.51 359.76 990.28 358.78 990.38 359.46 981.62 360.44"/><polygon class="cls-23" points="981.15 357.27 981.05 356.59 989.82 355.6 989.92 356.28 981.15 357.27"/><polygon class="cls-23" points="980.68 354.09 980.58 353.41 989.35 352.42 989.45 353.1 980.68 354.09"/></g></g><path class="cls-24" d="M1046.34,576.73c4,.43,7.1,1.19,7.64-2.71l1-6.89-14.81-1.58-1,6.88c-.56,3.89,2.71,3.83,6.68,4.26Z" transform="translate(-45.69 -7.93)"/><polygon class="cls-25" points="1009.8 555.32 994.98 553.74 994.44 557.62 1009.25 559.21 1009.8 555.32"/><polygon class="cls-26" points="1014.93 411.16 994.98 553.74 999.43 554.21 1019.38 411.64 1014.93 411.16"/><polygon class="cls-26" points="1009.8 555.32 1029.76 412.73 1023.83 412.11 1003.88 554.68 1009.8 555.32"/><polygon class="cls-27" points="1023.83 412.11 1019.38 411.64 999.43 554.21 1003.88 554.68 1023.83 412.11"/><polygon class="cls-28" points="1027.78 383.8 1023.7 392.36 1028.44 392.87 1027.78 383.8"/><polygon class="cls-29" points="1029.76 412.73 1028.44 392.87 1023.7 392.36 1014.93 411.16 1029.76 412.73"/><path class="cls-30" d="M1056.09,574.23l-.2-3.92-7.35-143.49-6,.23-4.47.18-4.48.17L1041,570.89l.2,3.92.36,6.93c.2,3.92,3.41,3.38,7.38,3.23l.51,0c4-.15,7.23.14,7-3.78Z" transform="translate(-45.69 -7.93)"/><polygon class="cls-28" points="995.43 389.4 993.02 398.43 997.8 398.23 995.43 389.4"/><polygon class="cls-29" points="1002.85 417.65 997.8 398.23 993.02 398.43 987.94 418.23 1002.85 417.65"/><path class="cls-31" d="M1036.64,534.73l-11.46,1.72c-.19-1-.37-1.91-.56-2.87-.52-2.65-1-5.31-1.56-8q-1.15-5.94-2.33-11.87c-1-4.91-1.92-9.83-2.88-14.75q-1.62-8.19-3.23-16.39-1.67-8.55-3.35-17.11-1.66-8.37-3.27-16.76c-1-4.94-2-9.88-2.94-14.82-.82-4.21-3.8-19.26-4.26-22.62a13.11,13.11,0,0,1-.44-3.35,60.49,60.49,0,0,1,2.45-8.42c.16-.38.44-1.28,1-1.42,1.44-.39,7.66,8.14,7.8,8.87Z" transform="translate(-45.69 -7.93)"/><path class="cls-31" d="M1003.79,398.11c-.54.14-.82,1-1,1.42a60.49,60.49,0,0,0-2.45,8.42,13.11,13.11,0,0,0,.44,3.35c.1.73.32,2,.6,3.6l1.76-.27a4,4,0,0,1,4.58,2.83l21.32,108.78a3.55,3.55,0,0,1-3.23,4l-1.81.27.6,3.07c.19,1,.37,1.91.56,2.87l11.46-1.72L1011.59,407C1011.45,406.25,1005.23,397.72,1003.79,398.11Z" transform="translate(-45.69 -7.93)"/><path class="cls-32" d="M1029.06,526.24l-21.32-108.78a4,4,0,0,0-4.58-2.83l-1.76.27c1.05,5.76,3,15.72,3.66,19,1,4.94,2,9.88,2.94,14.82q1.62,8.38,3.27,16.76,1.69,8.56,3.35,17.11,1.61,8.2,3.23,16.39c1,4.92,1.91,9.84,2.88,14.75q1.17,5.94,2.33,11.87c.31,1.63.64,3.26,1,4.89l1.81-.27A3.55,3.55,0,0,0,1029.06,526.24Z" transform="translate(-45.69 -7.93)"/><path class="cls-32" d="M1036.61,534.61c.26,1.32-2.09,2.77-5.26,3.24s-5.93-.21-6.19-1.52,2.09-2.77,5.26-3.25S1036.35,533.29,1036.61,534.61Z" transform="translate(-45.69 -7.93)"/><path class="cls-31" d="M1011.89,456.16a1.17,1.17,0,0,1-1.07,1.33h0a1.32,1.32,0,0,1-1.53-.94l-4.6-23.49a1.19,1.19,0,0,1,1.08-1.33h0a1.32,1.32,0,0,1,1.52.95Z" transform="translate(-45.69 -7.93)"/><path class="cls-17" d="M979,488.69h98.84s7.21,53.21-27.73,109.6H1006.7C971.76,541.9,979,488.69,979,488.69Z" transform="translate(-45.69 -7.93)"/><rect class="cls-33" x="665.85" y="382.42" width="81.5" height="318.71" transform="translate(1202.68 -172.75) rotate(90)"/><rect class="cls-34" x="828.69" y="515.84" width="34.09" height="4.46" transform="translate(1318.11 -335.59) rotate(90)"/><rect class="cls-34" x="795.16" y="515.84" width="34.09" height="4.46" transform="translate(1284.59 -302.06) rotate(90)"/><rect class="cls-34" x="848.57" y="507.16" width="16.72" height="4.46" transform="translate(1320.62 -355.47) rotate(90)"/><rect class="cls-34" x="826.73" y="507.16" width="16.72" height="4.46" transform="translate(1298.79 -333.63) rotate(90)"/><rect class="cls-34" x="815.42" y="507.16" width="16.72" height="4.46" transform="translate(1287.47 -322.32) rotate(90)"/><rect class="cls-34" x="760.42" y="515.84" width="34.09" height="4.46" transform="translate(1249.85 -267.33) rotate(90)"/><rect class="cls-34" x="791.99" y="507.16" width="16.72" height="4.46" transform="translate(1264.05 -298.89) rotate(90)"/><rect class="cls-34" x="780.68" y="507.16" width="16.72" height="4.46" transform="translate(1252.74 -287.58) rotate(90)"/><rect class="cls-34" x="725.05" y="515.84" width="34.09" height="4.46" transform="translate(1214.47 -231.95) rotate(90)"/><rect class="cls-34" x="756.61" y="507.16" width="16.72" height="4.46" transform="translate(1228.67 -263.52) rotate(90)"/><rect class="cls-34" x="745.3" y="507.16" width="16.72" height="4.46" transform="translate(1217.36 -252.2) rotate(90)"/><rect class="cls-34" x="690.31" y="515.84" width="34.09" height="4.46" transform="translate(1179.73 -197.21) rotate(90)"/><rect class="cls-34" x="721.88" y="507.16" width="16.72" height="4.46" transform="translate(1193.94 -228.78) rotate(90)"/><rect class="cls-34" x="710.57" y="507.16" width="16.72" height="4.46" transform="translate(1182.62 -217.47) rotate(90)"/><rect class="cls-34" x="653.62" y="515.84" width="34.09" height="4.46" transform="translate(1143.04 -160.52) rotate(90)"/><rect class="cls-34" x="685.19" y="507.16" width="16.72" height="4.46" transform="translate(1157.24 -192.09) rotate(90)"/><rect class="cls-34" x="673.87" y="507.16" width="16.72" height="4.46" transform="translate(1145.93 -180.78) rotate(90)"/><rect class="cls-34" x="618.88" y="515.84" width="34.09" height="4.46" transform="translate(1108.31 -125.78) rotate(90)"/><rect class="cls-34" x="650.45" y="507.16" width="16.72" height="4.46" transform="translate(1122.51 -157.35) rotate(90)"/><rect class="cls-34" x="639.14" y="507.16" width="16.72" height="4.46" transform="translate(1111.19 -146.04) rotate(90)"/><rect class="cls-34" x="583.17" y="515.84" width="34.09" height="4.46" transform="translate(1072.59 -90.07) rotate(90)"/><rect class="cls-34" x="614.74" y="507.16" width="16.72" height="4.46" transform="translate(1086.79 -121.64) rotate(90)"/><rect class="cls-34" x="603.42" y="507.16" width="16.72" height="4.46" transform="translate(1075.48 -110.32) rotate(90)"/><rect class="cls-34" x="548.43" y="515.84" width="34.09" height="4.46" transform="translate(1037.86 -55.33) rotate(90)"/><rect class="cls-34" x="580" y="507.16" width="16.72" height="4.46" transform="translate(1052.06 -86.9) rotate(90)"/><rect class="cls-34" x="568.69" y="507.16" width="16.72" height="4.46" transform="translate(1040.74 -75.59) rotate(90)"/><line class="cls-35" x1="891.35" y1="267.83" x2="932.8" y2="340.95"/><path class="cls-35" d="M991.47,319.65l-32.2-6.15,31.41-14.79a8,8,0,0,0,9.78,3.25,6.07,6.07,0,0,0,3-8.77,8,8,0,0,0-9.82-3.31,6,6,0,0,0-3,8.75l0,.06-32.22,13.36s10-17.73,14.46-26.74c8.77-.59,33.56-3.83,40.83-5.78l2.37-.63s-3.32-5.13,8.45,15.65c-.64.34-1.33.73-2.07,1.15C1011.35,302.08,991.47,319.65,991.47,319.65Z" transform="translate(-45.69 -7.93)"/><path class="cls-35" d="M1036.89,296l-6.72,2.86a2.83,2.83,0,0,1-3.5-1.18l-14.48-25.55a2.13,2.13,0,0,1,.9-3,.6.6,0,0,1,.16-.08l6.72-2.86a2.85,2.85,0,0,1,3.5,1.19L1038,292.9A2.16,2.16,0,0,1,1036.89,296Z" transform="translate(-45.69 -7.93)"/><path class="cls-35" d="M1008.64,326.75c-19,8.06-41.56,1.88-50.45-13.81s-.73-35,18.23-43" transform="translate(-45.69 -7.93)"/><path class="cls-35" d="M938.43,278.21a3.23,3.23,0,0,1-4-1.35,2.46,2.46,0,0,1,1.2-3.56,3.24,3.24,0,0,1,4,1.35A2.46,2.46,0,0,1,938.43,278.21Z" transform="translate(-45.69 -7.93)"/><path class="cls-35" d="M977.71,272.57a3.23,3.23,0,0,1-4-1.35,2.45,2.45,0,0,1,1.21-3.55,3.22,3.22,0,0,1,4,1.35A2.45,2.45,0,0,1,977.71,272.57Z" transform="translate(-45.69 -7.93)"/><path class="cls-35" d="M1009.58,329a3.22,3.22,0,0,1-4-1.35,2.45,2.45,0,0,1,1.2-3.55,3.24,3.24,0,0,1,4,1.35A2.46,2.46,0,0,1,1009.58,329Z" transform="translate(-45.69 -7.93)"/><path class="cls-35" d="M979.88,351.33a3.22,3.22,0,0,1-4-1.35,2.45,2.45,0,0,1,1.2-3.55,3.23,3.23,0,0,1,4,1.35A2.45,2.45,0,0,1,979.88,351.33Z" transform="translate(-45.69 -7.93)"/><rect class="cls-35" x="257.5" y="303.22" width="129.79" height="85.66" rx="5.19" transform="translate(-195.08 371.48) rotate(-51.07)"/><path class="cls-12" d="M329.53,283l53,42.79-55.83,69.12-53-42.79L329.53,283m-.15-1.4L272.29,352.3l54.53,44,57.08-70.67-54.52-44Z" transform="translate(-45.69 -7.93)"/><g id="buttons"><path class="cls-12" d="M317.65,396.89l4.5,3.64-8.53,10.56-4.5-3.64,8.53-10.56m-.15-1.4-9.79,12.11,6.06,4.9,9.78-12.12-6.05-4.89Z" transform="translate(-45.69 -7.93)"/><path class="cls-12" d="M307.55,388.74l4.5,3.63-8.53,10.56L299,399.3l8.53-10.56m-.15-1.41-9.79,12.12,6.06,4.89,9.79-12.12-6.06-4.89Z" transform="translate(-45.69 -7.93)"/><path class="cls-12" d="M281.3,367.53l4.5,3.64-8.53,10.56-4.5-3.64,8.53-10.56m-.15-1.4-9.79,12.11,6.06,4.9L287.21,371l-6.06-4.89Z" transform="translate(-45.69 -7.93)"/><path class="cls-12" d="M271.2,359.38l4.5,3.64-8.53,10.56-4.5-3.64,8.53-10.56m-.15-1.41-9.78,12.12,6.05,4.89,9.79-12.11-6.06-4.9Z" transform="translate(-45.69 -7.93)"/><path class="cls-12" d="M292.91,377.72h0a8.61,8.61,0,0,1,5.46,1.93,8.7,8.7,0,1,1-5.46-1.93m0,16.79a8.1,8.1,0,1,0-5.09-1.8,8.06,8.06,0,0,0,5.09,1.8m0-17.79a9.69,9.69,0,0,0-6.1,17.23h0a9.69,9.69,0,1,0,6.1-17.23Zm0,16.79a7.1,7.1,0,1,1,5.52-2.64,7.07,7.07,0,0,1-5.52,2.64Z" transform="translate(-45.69 -7.93)"/></g><path class="cls-36" d="M1102.41,536.82c2.11,28.82,2.11,52.3,0,52.46s-5.54-23.08-7.66-51.9c-1.3-17.76-1.8-33.5-1.49-43,.19-5.91.69-9.4,1.5-9.46C1096.87,484.77,1100.29,508,1102.41,536.82Z" transform="translate(-45.69 -7.93)"/><rect class="cls-37" x="1093.02" y="495.19" width="5.26" height="3.88" transform="translate(-79.1 73.49) rotate(-4.19)"/><path class="cls-38" d="M1094,475.23v0s-9.5,13-1.16,20.16l2.62-.19.18,0,2.45-.18C1105.33,486.66,1094,475.23,1094,475.23Z" transform="translate(-45.69 -7.93)"/><path class="cls-39" d="M1095.08,521c3.52,28.67,4.68,52.13,2.57,52.39s-6.67-22.78-10.2-51.46c-2.17-17.68-3.44-33.37-3.6-42.87-.11-5.91.22-9.42,1-9.52C1087,469.31,1091.55,492.35,1095.08,521Z" transform="translate(-45.69 -7.93)"/><rect class="cls-40" x="1083.74" y="479.78" width="5.26" height="3.88" transform="translate(-96.36 128.26) rotate(-7.01)"/><path class="cls-41" d="M1083.69,459.92v0s-8.85,13.41-.16,20.19l2.61-.32.17,0,2.44-.3C1095.53,470.79,1083.69,459.92,1083.69,459.92Z" transform="translate(-45.69 -7.93)"/><path class="cls-42" d="M1126.74,535.66c0,32-1.91,58-4.26,58s-4.26-26-4.26-58c0-19.74.73-37.19,1.83-47.66.69-6.52,1.53-10.34,2.43-10.34C1124.83,477.66,1126.74,503.63,1126.74,535.66Z" transform="translate(-45.69 -7.93)"/><rect class="cls-43" x="1073.87" y="481.15" width="5.83" height="4.31"/><path class="cls-44" d="M1122.48,463.3v0s-10.91,12.8-6,22.87a6.44,6.44,0,0,0,5.8,3.54h.46a6.44,6.44,0,0,0,5.8-3.54C1133.4,476.1,1122.48,463.3,1122.48,463.3Z" transform="translate(-45.69 -7.93)"/><path class="cls-39" d="M1113.91,519.29c1.44,28.86.89,52.34-1.23,52.44s-5-23.2-6.45-52.05c-.88-17.79-1-33.54-.49-43,.32-5.9.91-9.38,1.72-9.42C1109.58,467.13,1112.47,490.43,1113.91,519.29Z" transform="translate(-45.69 -7.93)"/><rect class="cls-23" x="1105.44" y="477.52" width="5.26" height="3.88" transform="translate(-68.26 48) rotate(-2.86)"/><path class="cls-45" d="M1110.44,461.74l-.56,6.47-.33-6.43-.44,0-3.83.19-.71,0,.16,3.24-.93-3.2-2.35.11c.56,11.32,3.9,15.47,3.9,15.47l.71,0,3.83-.19.71,0s2.9-4.47,2.33-15.78Z" transform="translate(-45.69 -7.93)"/><path class="cls-39" d="M1145.83,528.71c-5.84,28.3-12.27,50.89-14.34,50.46s1-23.71,6.81-52c3.61-17.44,7.43-32.72,10.32-41.77,1.79-5.63,3.23-8.85,4-8.69C1154.72,477.13,1151.67,500.42,1145.83,528.71Z" transform="translate(-45.69 -7.93)"/><rect class="cls-23" x="1148.23" y="486.06" width="3.88" height="5.26" transform="translate(393.29 1508.34) rotate(-78.33)"/><path class="cls-45" d="M1156.91,472.13l-2.17,6.12,1.3-6.3-.44-.09-3.75-.78-.7-.14-.66,3.18-.09-3.34-2.31-.47c-2.29,11.09-.1,15.95-.1,15.95l.7.14,3.75.78.7.14s3.93-3.59,6.22-14.69Z" transform="translate(-45.69 -7.93)"/><polygon class="cls-23" points="1081.21 464.36 1080.87 467.59 1092.31 468.81 1103.75 470.04 1104.1 466.81 1081.21 464.36"/><path class="cls-37" d="M1138,476.74l-11.45-1.22a7.86,7.86,0,0,0,2.43,7,11.55,11.55,0,0,1,4,10.46c-1.84,10.54-3.78,24.55-5.44,40-3.54,33.11-4.44,60.16-2,60.42s7.28-26.37,10.82-59.48c1.65-15.47,2.73-29.58,3.16-40.28.16-4,2.63-7.34,6.1-9.38a7.84,7.84,0,0,0,3.85-6.31Z" transform="translate(-45.69 -7.93)"/><polygon class="cls-38" points="1081.21 464.36 1083.32 444.66 1089.74 445.35 1090.13 452.81 1091.23 445.51 1097.34 446.16 1097.2 457.93 1098.83 446.32 1106.2 447.11 1104.1 466.81 1081.21 464.36"/><polygon class="cls-46" points="1103.26 506.93 1041.07 506.93 1046.7 593 1097.63 593 1103.26 506.93"/><rect class="cls-45" x="1040.3" y="506.93" width="62.97" height="7.41"/><path class="cls-23" d="M912.2,442.74c0,9.49-9.17,17.18-20.48,17.18H399.58c-11.31,0-20.48-7.69-20.48-17.18V119.19c0-9.49,9.17-17.18,20.48-17.18H891.72c11.31,0,20.48,7.69,20.48,17.18Z" transform="translate(-45.69 -7.93)"/><path class="cls-43" d="M891.72,102H399.58c-11.31,0-20.48,7.69-20.48,17.18v31.45H912.2V119.19C912.2,109.7,903,102,891.72,102Z" transform="translate(-45.69 -7.93)"/><path class="cls-10" d="M876.66,119.43H843.43c-2.07,0-3.76-1.41-3.76-3.16s1.69-3.15,3.76-3.15h33.23c2.07,0,3.76,1.41,3.76,3.15S878.73,119.43,876.66,119.43Z" transform="translate(-45.69 -7.93)"/><path class="cls-10" d="M876.66,130.48H843.43c-2.07,0-3.76-1.42-3.76-3.16s1.69-3.16,3.76-3.16h33.23c2.07,0,3.76,1.42,3.76,3.16S878.73,130.48,876.66,130.48Z" transform="translate(-45.69 -7.93)"/><path class="cls-10" d="M876.66,141.52H843.43c-2.07,0-3.76-1.41-3.76-3.15s1.69-3.16,3.76-3.16h33.23c2.07,0,3.76,1.41,3.76,3.16S878.73,141.52,876.66,141.52Z" transform="translate(-45.69 -7.93)"/><path class="cls-10" d="M794.73,138.37H569.19c-7.27,0-13.16-5-13.16-11.05h0c0-6.1,5.89-11,13.16-11H794.73c7.27,0,13.17,5,13.17,11h0C807.9,133.42,802,138.37,794.73,138.37Z" transform="translate(-45.69 -7.93)"/><path class="cls-23" d="M399.48,133.48a2.77,2.77,0,0,1-1.77-.62,1.87,1.87,0,0,1,0-3l12-10.1a2.87,2.87,0,0,1,3.55,0,1.87,1.87,0,0,1,0,3l-12,10.1A2.79,2.79,0,0,1,399.48,133.48Z" transform="translate(-45.69 -7.93)"/><path class="cls-23" d="M411.52,133.48a2.79,2.79,0,0,1-1.78-.62l-12-10.1a1.87,1.87,0,0,1,0-3,2.87,2.87,0,0,1,3.55,0l12,10.1a1.87,1.87,0,0,1,0,3A2.77,2.77,0,0,1,411.52,133.48Z" transform="translate(-45.69 -7.93)"/><path class="cls-23" d="M462.74,133.48c-4.7,0-8.53-3.21-8.53-7.16s3.83-7.16,8.53-7.16,8.53,3.21,8.53,7.16S467.44,133.48,462.74,133.48Zm0-10.1a3,3,0,1,0,3.51,2.94A3.27,3.27,0,0,0,462.74,123.38Z" transform="translate(-45.69 -7.93)"/><path class="cls-23" d="M439.79,128.43H426.9a2.14,2.14,0,1,1,0-4.22h12.89a2.14,2.14,0,1,1,0,4.22Z" transform="translate(-45.69 -7.93)"/><path class="cls-47" d="M583.19,392.25s22.93,2.84,38.1,20l-14,11.76S584,416.88,584,411.59C584,409.55,583.19,392.25,583.19,392.25Z" transform="translate(-45.69 -7.93)"/><path class="cls-48" d="M589.41,376.89c.53-.82,1.43-3.8,6.93-2s5.87-5.43,7-4.73,1.41,4.41-1,6-11,1.83-10.09,5.79,43,29.35,39.4,36.37-11.94,8.18-19.06,3.37S582.28,387.85,589.41,376.89Z" transform="translate(-45.69 -7.93)"/><path class="cls-48" d="M566.18,363.3s-.26-6.65-3.8-6-6.09,7.16-4.19,9.57S566.24,368.85,566.18,363.3Z" transform="translate(-45.69 -7.93)"/><path class="cls-49" d="M665,543.46l1.51,11c2.06,0,24-1.2,24.25-2.4s-16.93-3.1-16.93-3.1.08-4.67-.23-5.3S665,543.46,665,543.46Z" transform="translate(-45.69 -7.93)"/><path class="cls-49" d="M631.82,562.19l-3.32,10.7c1.91.68,22.78,6.78,23.5,5.74s-14.35-8.43-14.35-8.43,2.08-4.3,2.06-5S631.82,562.19,631.82,562.19Z" transform="translate(-45.69 -7.93)"/><path class="cls-47" d="M568.81,391.08s-16.2-.88-24.31,4.43-5.57,107.63-5.57,107.63l52.17-10.63s3.54-94.34-3-98.33S568.81,391.08,568.81,391.08Z" transform="translate(-45.69 -7.93)"/><path class="cls-50" d="M538.93,489.4s85.59-60.67,114.46-34.1,21.27,92.11,21.27,92.11H662.51S658,473,638.2,469s-40.38,17.42-40.38,17.42,30.25-5.47,47,8.26c11.67,9.59-3.55,74-3.55,74H629.08s9.65-66-7.33-65.53-82.82,0-82.82,0Z" transform="translate(-45.69 -7.93)"/><polygon class="cls-51" points="448.16 483.97 612.8 378.39 660.87 366.61 628.46 399.82 461.33 506.11 448.16 483.97"/><polygon class="cls-52" points="612.8 378.39 606.34 389.61 619.31 390.44 617.29 399.14 628.46 399.82 461.5 508.04 448.16 483.97 612.8 378.39"/><polygon class="cls-49" points="634.35 373.11 643.82 384.08 660.87 366.61 634.35 373.11"/><path class="cls-48" d="M526.17,432.19s-3.64,36.38,6,36.68,42.67-15.44,45.91-16c5.37-.88,10.88,2.61,11.45,2.2s-.67-6.53-12.21-8c-9.5-1.23-34.46,7.63-36.35,4.08s5.95-55.64,5.95-55.64S525.5,401.68,526.17,432.19Z" transform="translate(-45.69 -7.93)"/><path class="cls-47" d="M520.45,426.94s20.36,8,23.2,5.25S556,391.74,556,391.74,529,392,520.45,426.94Z" transform="translate(-45.69 -7.93)"/><path class="cls-48" d="M588.06,348s9,26-3.68,29.1-10.36-8.63-9.85-6.41,3.73,20.46,3.73,20.46-6.41,7.15-18.5,1c-1.92-1,5.15-29.47,6.62-43.93C567,341.85,583.5,340.53,588.06,348Z" transform="translate(-45.69 -7.93)"/><path class="cls-53" d="M524.44,372.41c7.32-10.26,20.11-5.45,20.38-15.17s12.89-24.43,35.5-18.76c10.83,2.72,10.4,8.88.35,8.67s-10.4,6.62-11.24,10.09-3.43,7.35-4.13,5.5c-2.64-7-5.87-3.41-5.87-3.41s-3.85,5.51,0,7.11,5.38-.32,5.87,2,3.29,16.18-7.73,16.59-7.26,6.23-19.35,8.43S517.78,381.76,524.44,372.41Z" transform="translate(-45.69 -7.93)"/><path class="cls-48" d="M433.25,346s-46.1,22.22-83.38,6.81c-37.05-15.32-41.41-15.16-47.08-12.69s8.4-13.41,36.87,0c8.7,4.1,54.66,4.18,90.31-20.46C430,319.64,441.61,339.19,433.25,346Z" transform="translate(-45.69 -7.93)"/><path class="cls-48" d="M528.19,218.33c-6.26,1.76-11.37.68-10.8,13.42s28.42,87.6-31.17,104.1c0,0-11.37-20.58-9.67-25.63s27.87-18.28,28.4-40.31,1.64-48.45,12.44-51.58c0,0,6.28-4,10.8-3.12" transform="translate(-45.69 -7.93)"/><path class="cls-49" d="M416.91,402.61s-12.07,30.1-44,33.68-56.62-30.36-56.62-30.36l-11.74,7.4s15.7,40.56,57.66,49.63,71.39-22.61,71.39-22.61,8.85,4.76,5.45,41c-4.26,45.48-8.51,71.73-8.51,71.73h14s20.11-48.19,23.48-82.71c3.92-40.2-2.9-60.74-2.9-60.74Z" transform="translate(-45.69 -7.93)"/><path class="cls-49" d="M316,409,309,400.82c-1.46,1-16.34,12.4-15.85,13.48s13.66-5.55,13.66-5.55a36.9,36.9,0,0,0,3,4.18C310.36,413.27,316,409,316,409Z" transform="translate(-45.69 -7.93)"/><path class="cls-49" d="M433.76,551.08l.92,10.77c1.75.06,20.51-.44,20.74-1.61s-14.32-3.53-14.32-3.53a37,37,0,0,0,0-5.17C440.87,551,433.76,551.08,433.76,551.08Z" transform="translate(-45.69 -7.93)"/><path class="cls-54" d="M409.88,414.42s18.4-47.41,18.73-84.53c.25-27.22,55.29-21.86,57.18-9.75,4.23,27-15.67,115.74-15.67,115.74Z" transform="translate(-45.69 -7.93)"/><path class="cls-54" d="M466.88,311S489,298.1,490.1,297.46s23.76,22.18,23.76,22.18-20.58,21.22-31.59,22.18S461.4,311.77,466.88,311Z" transform="translate(-45.69 -7.93)"/><path class="cls-54" d="M395.55,332.6s1.9,23.81,3.8,25,35.22-6.35,37.93-9.33,6.42-35.23,4.65-34.39S398.26,331.25,395.55,332.6Z" transform="translate(-45.69 -7.93)"/><path class="cls-48" d="M456.93,286.08s-.22-6.47-3.24-5.86-5.19,7-3.57,9.33S457,291.5,456.93,286.08Z" transform="translate(-45.69 -7.93)"/><path class="cls-48" d="M477,278.59s6.24,17.92-4.56,20.94-8.83-8.42-8.4-6.26,3.18,20,3.18,20-5.46,7-15.77.93c-1.64-1,4.39-28.73,5.64-42.83C457.64,265.17,473.12,271.33,477,278.59Z" transform="translate(-45.69 -7.93)"/><path class="cls-49" d="M458.15,265.79s2.43-8.39,7.61-6.42,4.46,4.82,8.21,3.21,7.59,4.28,5.6,8c-2.6,4.91-2.56,6.43-9.7,4.82s-10.89-4.1-12.5-1.25,1.25,10.18-.89,11.07-2-4.82-3.57-2.68-4.11,7.62.18,6.93,1.11,5-.52,4.86-9.08-6.29-8.23-14.47c.54-5.17,6-2.5,4.46-6.24S450.71,261.87,458.15,265.79Z" transform="translate(-45.69 -7.93)"/><path class="cls-55" d="M875.18,418.11l-35-6.35-1.21-.2-71.82-13-1.21-.19L694.64,385.4l-.56-.08-35.66-6.46,48,102.6Zm-77.27,5.26-80.75,30.32L694.42,405Z" transform="translate(-45.69 -7.93)"/><g class="cls-56"><path class="cls-57" d="M855.67,414.57l-.77-.14-1,4.66a.36.36,0,0,0,.3.43.42.42,0,0,0,.47-.29Z" transform="translate(-45.69 -7.93)"/><path class="cls-57" d="M853.78,414.23l-.56-.1-.51,2.29a.26.26,0,0,0,.22.3.3.3,0,0,0,.33-.2Z" transform="translate(-45.69 -7.93)"/></g><g class="cls-56"><path class="cls-57" d="M852,413.91l-.77-.14-1,4.65a.37.37,0,0,0,.3.44.41.41,0,0,0,.47-.3Z" transform="translate(-45.69 -7.93)"/><path class="cls-57" d="M850.13,413.57l-.56-.1-.51,2.28a.27.27,0,0,0,.22.31.3.3,0,0,0,.33-.2Z" transform="translate(-45.69 -7.93)"/></g><g class="cls-56"><path class="cls-57" d="M848.37,413.25l-.77-.14-1.05,4.65a.37.37,0,0,0,.3.44.41.41,0,0,0,.47-.3Z" transform="translate(-45.69 -7.93)"/><path class="cls-57" d="M846.48,412.9l-.56-.1-.51,2.29a.25.25,0,0,0,.22.3.28.28,0,0,0,.33-.2Z" transform="translate(-45.69 -7.93)"/></g><g class="cls-56"><path class="cls-57" d="M844.72,412.59l-.77-.14-1.05,4.65a.37.37,0,0,0,.3.44.42.42,0,0,0,.47-.3Z" transform="translate(-45.69 -7.93)"/><path class="cls-57" d="M842.81,412.24l-.54-.1-.51,2.29a.26.26,0,0,0,.22.3.26.26,0,0,0,.31-.2Z" transform="translate(-45.69 -7.93)"/></g><g class="cls-56"><path class="cls-57" d="M841.07,411.92l-.79-.14-1,4.65a.38.38,0,0,0,.32.44.4.4,0,0,0,.47-.29Z" transform="translate(-45.69 -7.93)"/><path class="cls-57" d="M839.16,411.58l-.53-.1-.52,2.29a.27.27,0,0,0,.53.1Z" transform="translate(-45.69 -7.93)"/></g><g class="cls-56"><path class="cls-57" d="M837.42,411.28l-.8-.14-1,4.63a.37.37,0,0,0,.32.44.4.4,0,0,0,.47-.29Z" transform="translate(-45.69 -7.93)"/><path class="cls-57" d="M835.51,410.93l-.54-.09-.51,2.27a.24.24,0,0,0,.2.29.29.29,0,0,0,.34-.2Z" transform="translate(-45.69 -7.93)"/></g><g class="cls-56"><path class="cls-57" d="M833.77,410.62l-.79-.14-1.05,4.63a.37.37,0,0,0,.3.44.41.41,0,0,0,.49-.3Z" transform="translate(-45.69 -7.93)"/><path class="cls-57" d="M831.86,410.27l-.54-.09-.51,2.26a.25.25,0,0,0,.2.3.29.29,0,0,0,.34-.2Z" transform="translate(-45.69 -7.93)"/></g><g class="cls-56"><path class="cls-57" d="M830.12,410l-.79-.15-1.05,4.64a.36.36,0,0,0,.3.43.42.42,0,0,0,.49-.29Z" transform="translate(-45.69 -7.93)"/><path class="cls-57" d="M828.21,409.61l-.56-.1-.51,2.27a.26.26,0,0,0,.22.3.29.29,0,0,0,.34-.2Z" transform="translate(-45.69 -7.93)"/></g><g class="cls-56"><path class="cls-57" d="M826.45,409.29l-.77-.14-1,4.64a.37.37,0,0,0,.3.43.4.4,0,0,0,.47-.29Z" transform="translate(-45.69 -7.93)"/><path class="cls-57" d="M824.56,409l-.56-.1-.51,2.27a.26.26,0,0,0,.22.3.3.3,0,0,0,.34-.2Z" transform="translate(-45.69 -7.93)"/></g><g class="cls-56"><path class="cls-57" d="M822.8,408.63l-.77-.14-1,4.63a.37.37,0,0,0,.3.44.4.4,0,0,0,.47-.3Z" transform="translate(-45.69 -7.93)"/><path class="cls-57" d="M820.91,408.29l-.56-.1-.51,2.27a.26.26,0,0,0,.22.3.31.31,0,0,0,.34-.2Z" transform="translate(-45.69 -7.93)"/></g><g class="cls-56"><path class="cls-57" d="M819.15,408l-.77-.14-1,4.63a.37.37,0,0,0,.3.44.4.4,0,0,0,.47-.3Z" transform="translate(-45.69 -7.93)"/><path class="cls-57" d="M817.26,407.63l-.56-.11-.51,2.27a.25.25,0,0,0,.22.3.29.29,0,0,0,.34-.2Z" transform="translate(-45.69 -7.93)"/></g><g class="cls-56"><path class="cls-57" d="M815.5,407.31l-.77-.14-1.05,4.63a.38.38,0,0,0,.3.44.41.41,0,0,0,.47-.3Z" transform="translate(-45.69 -7.93)"/><path class="cls-57" d="M813.61,407l-.56-.1-.51,2.27a.26.26,0,0,0,.22.3.29.29,0,0,0,.34-.2Z" transform="translate(-45.69 -7.93)"/></g><g class="cls-56"><path class="cls-57" d="M811.85,406.64l-.77-.14L810,411.14a.36.36,0,0,0,.31.43.4.4,0,0,0,.46-.29Z" transform="translate(-45.69 -7.93)"/><path class="cls-57" d="M809.94,406.3l-.54-.1-.51,2.27a.26.26,0,0,0,.22.3.28.28,0,0,0,.32-.2Z" transform="translate(-45.69 -7.93)"/></g><g class="cls-56"><path class="cls-57" d="M808.2,406l-.79-.14-1,4.63a.39.39,0,0,0,.33.44.42.42,0,0,0,.47-.29Z" transform="translate(-45.69 -7.93)"/><path class="cls-57" d="M806.29,405.64l-.53-.1-.52,2.27a.28.28,0,0,0,.54.1Z" transform="translate(-45.69 -7.93)"/></g><g class="cls-56"><path class="cls-57" d="M804.55,405.32l-.79-.14-1,4.63a.39.39,0,0,0,.33.44.42.42,0,0,0,.47-.29Z" transform="translate(-45.69 -7.93)"/><path class="cls-57" d="M802.64,405l-.53-.09-.52,2.27a.24.24,0,0,0,.2.29.29.29,0,0,0,.34-.2Z" transform="translate(-45.69 -7.93)"/></g><g class="cls-56"><path class="cls-57" d="M800.9,404.66l-.79-.15-1.05,4.64a.38.38,0,0,0,.31.44.42.42,0,0,0,.49-.3Z" transform="translate(-45.69 -7.93)"/><path class="cls-57" d="M799,404.31l-.53-.1-.52,2.27a.25.25,0,0,0,.21.3.28.28,0,0,0,.33-.2Z" transform="translate(-45.69 -7.93)"/></g><g class="cls-56"><path class="cls-57" d="M797.25,404l-.79-.15-1.05,4.64a.37.37,0,0,0,.31.43.44.44,0,0,0,.49-.29Z" transform="translate(-45.69 -7.93)"/><path class="cls-57" d="M795.34,403.65l-.55-.1-.52,2.27a.27.27,0,0,0,.23.3.29.29,0,0,0,.33-.2Z" transform="translate(-45.69 -7.93)"/></g><g class="cls-56"><path class="cls-57" d="M793.58,403.33l-.77-.14-1,4.64a.37.37,0,0,0,.31.43.42.42,0,0,0,.47-.29Z" transform="translate(-45.69 -7.93)"/><path class="cls-57" d="M791.69,403l-.55-.1-.52,2.27a.27.27,0,0,0,.23.3.3.3,0,0,0,.33-.2Z" transform="translate(-45.69 -7.93)"/></g><g class="cls-56"><path class="cls-57" d="M789.93,402.67l-.77-.14-1,4.63a.37.37,0,0,0,.31.44.41.41,0,0,0,.47-.3Z" transform="translate(-45.69 -7.93)"/><path class="cls-57" d="M788.05,402.33l-.56-.1-.52,2.26a.28.28,0,0,0,.23.31.3.3,0,0,0,.33-.2Z" transform="translate(-45.69 -7.93)"/></g><g class="cls-56"><path class="cls-57" d="M786.28,402l-.77-.14-1,4.63a.38.38,0,0,0,.31.44.42.42,0,0,0,.47-.3Z" transform="translate(-45.69 -7.93)"/><path class="cls-57" d="M784.4,401.66l-.56-.1-.51,2.27a.25.25,0,0,0,.22.3.28.28,0,0,0,.33-.2Z" transform="translate(-45.69 -7.93)"/></g><g class="cls-56"><path class="cls-57" d="M782.64,401.35l-.78-.15-1,4.64a.36.36,0,0,0,.3.44.43.43,0,0,0,.47-.3Z" transform="translate(-45.69 -7.93)"/><path class="cls-57" d="M780.75,401l-.56-.1-.51,2.27a.26.26,0,0,0,.22.3.28.28,0,0,0,.33-.2Z" transform="translate(-45.69 -7.93)"/></g><g class="cls-56"><path class="cls-57" d="M779,400.68l-.78-.14-1,4.64a.36.36,0,0,0,.3.43.41.41,0,0,0,.47-.29Z" transform="translate(-45.69 -7.93)"/><path class="cls-57" d="M777.08,400.34l-.54-.1-.51,2.27a.27.27,0,0,0,.53.1Z" transform="translate(-45.69 -7.93)"/></g><g class="cls-56"><path class="cls-57" d="M775.34,400l-.8-.14-1,4.63a.39.39,0,0,0,.32.44.4.4,0,0,0,.47-.29Z" transform="translate(-45.69 -7.93)"/><path class="cls-57" d="M773.43,399.67l-.54-.09-.51,2.27a.26.26,0,0,0,.22.3.27.27,0,0,0,.31-.21Z" transform="translate(-45.69 -7.93)"/></g><g class="cls-56"><path class="cls-57" d="M771.69,399.36l-.8-.14-1,4.63a.39.39,0,0,0,.32.44.4.4,0,0,0,.47-.3Z" transform="translate(-45.69 -7.93)"/><path class="cls-57" d="M769.78,399l-.54-.09-.51,2.27a.24.24,0,0,0,.2.29.28.28,0,0,0,.33-.2Z" transform="translate(-45.69 -7.93)"/></g><g class="cls-56"><path class="cls-57" d="M768,398.7l-.8-.15-1,4.64a.36.36,0,0,0,.3.43.4.4,0,0,0,.49-.29Z" transform="translate(-45.69 -7.93)"/><path class="cls-57" d="M766.13,398.35l-.54-.1-.51,2.27a.25.25,0,0,0,.2.3.29.29,0,0,0,.34-.2Z" transform="translate(-45.69 -7.93)"/></g><g class="cls-56"><path class="cls-57" d="M764.38,398.06l-.79-.15-1,4.62a.36.36,0,0,0,.3.43.43.43,0,0,0,.49-.29Z" transform="translate(-45.69 -7.93)"/><path class="cls-57" d="M762.47,397.71l-.55-.1-.51,2.25a.26.26,0,0,0,.22.3.3.3,0,0,0,.34-.2Z" transform="translate(-45.69 -7.93)"/></g><g class="cls-56"><path class="cls-57" d="M760.71,397.39l-.77-.14-1,4.61a.37.37,0,0,0,.3.44.4.4,0,0,0,.47-.29Z" transform="translate(-45.69 -7.93)"/><path class="cls-57" d="M758.82,397.05l-.55-.1-.51,2.25a.26.26,0,0,0,.22.3.31.31,0,0,0,.34-.2Z" transform="translate(-45.69 -7.93)"/></g><g class="cls-56"><path class="cls-57" d="M757.06,396.73l-.77-.14-1,4.61a.37.37,0,0,0,.3.44.4.4,0,0,0,.47-.3Z" transform="translate(-45.69 -7.93)"/><path class="cls-57" d="M755.18,396.38l-.56-.1-.51,2.25a.25.25,0,0,0,.22.3.29.29,0,0,0,.34-.2Z" transform="translate(-45.69 -7.93)"/></g><g class="cls-56"><path class="cls-57" d="M753.42,396.07l-.78-.14-1,4.61a.38.38,0,0,0,.3.44.41.41,0,0,0,.47-.3Z" transform="translate(-45.69 -7.93)"/><path class="cls-57" d="M751.53,395.72l-.56-.1-.51,2.25a.25.25,0,0,0,.22.3.29.29,0,0,0,.34-.2Z" transform="translate(-45.69 -7.93)"/></g><g class="cls-56"><path class="cls-57" d="M749.77,395.4l-.78-.14-1,4.62a.36.36,0,0,0,.3.43.4.4,0,0,0,.47-.29Z" transform="translate(-45.69 -7.93)"/><path class="cls-57" d="M747.88,395.06l-.56-.1-.51,2.25a.26.26,0,0,0,.22.3.29.29,0,0,0,.34-.2Z" transform="translate(-45.69 -7.93)"/></g><g class="cls-56"><path class="cls-57" d="M746.12,394.74l-.78-.14-1,4.62a.37.37,0,0,0,.3.43.4.4,0,0,0,.47-.29Z" transform="translate(-45.69 -7.93)"/><path class="cls-57" d="M744.21,394.4l-.54-.1-.51,2.25a.26.26,0,0,0,.22.3.28.28,0,0,0,.32-.2Z" transform="translate(-45.69 -7.93)"/></g><g class="cls-56"><path class="cls-57" d="M742.47,394.08l-.8-.14-1,4.61a.39.39,0,0,0,.33.44.4.4,0,0,0,.46-.29Z" transform="translate(-45.69 -7.93)"/><path class="cls-57" d="M740.56,393.73l-.54-.09-.51,2.25a.26.26,0,0,0,.22.3.28.28,0,0,0,.32-.21Z" transform="translate(-45.69 -7.93)"/></g><g class="cls-56"><path class="cls-57" d="M738.82,393.42l-.8-.15-1,4.62a.4.4,0,0,0,.79.14Z" transform="translate(-45.69 -7.93)"/><path class="cls-57" d="M736.91,393.07l-.54-.1-.51,2.25a.25.25,0,0,0,.2.3.29.29,0,0,0,.34-.2Z" transform="translate(-45.69 -7.93)"/></g><g class="cls-56"><path class="cls-57" d="M735.17,392.76l-.8-.15-1,4.62a.37.37,0,0,0,.31.43.42.42,0,0,0,.49-.29Z" transform="translate(-45.69 -7.93)"/><path class="cls-57" d="M733.26,392.41l-.54-.1-.51,2.25a.25.25,0,0,0,.2.3.3.3,0,0,0,.34-.2Z" transform="translate(-45.69 -7.93)"/></g><g class="cls-56"><path class="cls-57" d="M731.52,392.09l-.8-.14-1,4.62a.37.37,0,0,0,.31.43.44.44,0,0,0,.49-.29Z" transform="translate(-45.69 -7.93)"/><path class="cls-57" d="M729.61,391.75l-.56-.1-.51,2.25a.26.26,0,0,0,.22.3.31.31,0,0,0,.34-.2Z" transform="translate(-45.69 -7.93)"/></g><g class="cls-56"><path class="cls-57" d="M727.85,391.43l-.77-.14L726,395.9a.37.37,0,0,0,.31.44.41.41,0,0,0,.47-.3Z" transform="translate(-45.69 -7.93)"/><path class="cls-57" d="M726,391.09l-.56-.11-.51,2.25a.27.27,0,0,0,.23.31.3.3,0,0,0,.33-.2Z" transform="translate(-45.69 -7.93)"/></g><g class="cls-56"><path class="cls-57" d="M724.2,390.77l-.77-.14-1,4.61a.38.38,0,0,0,.31.44.42.42,0,0,0,.47-.3Z" transform="translate(-45.69 -7.93)"/><path class="cls-57" d="M722.31,390.42l-.56-.1-.51,2.25a.26.26,0,0,0,.23.3.28.28,0,0,0,.33-.2Z" transform="translate(-45.69 -7.93)"/></g><g class="cls-56"><path class="cls-57" d="M720.55,390.1l-.77-.14-1,4.62a.38.38,0,0,0,.31.44.43.43,0,0,0,.47-.3Z" transform="translate(-45.69 -7.93)"/><path class="cls-57" d="M718.66,389.76l-.56-.1-.51,2.25a.27.27,0,0,0,.23.3.28.28,0,0,0,.33-.2Z" transform="translate(-45.69 -7.93)"/></g><g class="cls-56"><path class="cls-57" d="M716.9,389.44l-.77-.14-1,4.62a.36.36,0,0,0,.31.43.42.42,0,0,0,.47-.29Z" transform="translate(-45.69 -7.93)"/><path class="cls-57" d="M715,389.1l-.56-.1-.51,2.25a.27.27,0,0,0,.23.3.29.29,0,0,0,.33-.2Z" transform="translate(-45.69 -7.93)"/></g><g class="cls-56"><path class="cls-57" d="M713.25,388.78l-.77-.14-1,4.62a.36.36,0,0,0,.3.43.42.42,0,0,0,.47-.29Z" transform="translate(-45.69 -7.93)"/><path class="cls-57" d="M711.34,388.43l-.54-.09-.5,2.25a.26.26,0,0,0,.22.3.27.27,0,0,0,.31-.21Z" transform="translate(-45.69 -7.93)"/></g><g class="cls-56"><path class="cls-57" d="M709.6,388.12l-.79-.15-1,4.62a.39.39,0,0,0,.33.44.41.41,0,0,0,.47-.3Z" transform="translate(-45.69 -7.93)"/><path class="cls-57" d="M707.69,387.77l-.54-.1-.5,2.26a.26.26,0,0,0,.22.3.27.27,0,0,0,.31-.21Z" transform="translate(-45.69 -7.93)"/></g><g class="cls-56"><path class="cls-57" d="M706,387.46l-.79-.15-1,4.62a.39.39,0,0,0,.32.44.41.41,0,0,0,.47-.3Z" transform="translate(-45.69 -7.93)"/><path class="cls-57" d="M704,387.11l-.53-.1-.51,2.25a.25.25,0,0,0,.2.3.28.28,0,0,0,.33-.2Z" transform="translate(-45.69 -7.93)"/></g><g class="cls-56"><path class="cls-57" d="M702.3,386.79l-.79-.14-1,4.62a.36.36,0,0,0,.3.43.41.41,0,0,0,.49-.29Z" transform="translate(-45.69 -7.93)"/><path class="cls-57" d="M700.39,386.45l-.53-.1-.51,2.25a.25.25,0,0,0,.2.3.29.29,0,0,0,.33-.2Z" transform="translate(-45.69 -7.93)"/></g><g class="cls-56"><path class="cls-57" d="M698.65,386.13l-.79-.14-1,4.62a.36.36,0,0,0,.3.43.43.43,0,0,0,.49-.29Z" transform="translate(-45.69 -7.93)"/><path class="cls-57" d="M696.74,385.79l-.56-.1-.5,2.25a.26.26,0,0,0,.22.3.3.3,0,0,0,.33-.2Z" transform="translate(-45.69 -7.93)"/></g><g class="cls-56"><path class="cls-57" d="M695,385.47l-.77-.14-1,4.61a.37.37,0,0,0,.3.44.4.4,0,0,0,.47-.3Z" transform="translate(-45.69 -7.93)"/><path class="cls-57" d="M693.09,385.12l-.56-.08-.5,2.23a.25.25,0,0,0,.22.3.3.3,0,0,0,.34-.19Z" transform="translate(-45.69 -7.93)"/></g><g class="cls-56"><path class="cls-57" d="M691.33,384.82l-.77-.14-1,4.6a.37.37,0,0,0,.3.44.41.41,0,0,0,.47-.3Z" transform="translate(-45.69 -7.93)"/><path class="cls-57" d="M689.44,384.48l-.56-.1-.5,2.23a.25.25,0,0,0,.22.3.29.29,0,0,0,.34-.2Z" transform="translate(-45.69 -7.93)"/></g><g class="cls-56"><path class="cls-57" d="M687.68,384.16l-.77-.14-1,4.6a.36.36,0,0,0,.3.43.4.4,0,0,0,.47-.29Z" transform="translate(-45.69 -7.93)"/><path class="cls-57" d="M685.79,383.82l-.56-.1-.5,2.23a.26.26,0,0,0,.22.3.29.29,0,0,0,.34-.2Z" transform="translate(-45.69 -7.93)"/></g><g class="cls-56"><path class="cls-57" d="M684,383.5l-.77-.14-1,4.6a.37.37,0,0,0,.3.43.4.4,0,0,0,.47-.29Z" transform="translate(-45.69 -7.93)"/><path class="cls-57" d="M682.14,383.16l-.56-.1-.5,2.23a.26.26,0,0,0,.22.3.3.3,0,0,0,.34-.2Z" transform="translate(-45.69 -7.93)"/></g><g class="cls-56"><path class="cls-57" d="M680.38,382.84l-.77-.14-1,4.6a.37.37,0,0,0,.3.43.4.4,0,0,0,.47-.29Z" transform="translate(-45.69 -7.93)"/><path class="cls-57" d="M678.47,382.49l-.54-.09-.5,2.23a.26.26,0,0,0,.22.3.28.28,0,0,0,.32-.21Z" transform="translate(-45.69 -7.93)"/></g><path class="cls-58" d="M859.2,409.51c3.62,25-7.83,50.17-19.4,43.22-18.15-10.91-45.08-46.69-47.69-46.8-1.51-.06-2.89.77-7.3.83a41.83,41.83,0,0,1-7.88-1.06c-.45-.09-1-.3-1-.71a.81.81,0,0,1,.45-.61,5.92,5.92,0,0,1,3.19-.72c.92,0,2.1-.13,2.36-.93a1.21,1.21,0,0,0-.59-1.27,4.34,4.34,0,0,0-1.51-.55c-2.86-.66-6.43-1.25-9.29-1.91,1.74-.48,4.22-1,6-1.36a25.08,25.08,0,0,1,4.05-.62,59.53,59.53,0,0,1,8.45.29c4,.6,5.4,1.42,9,3a37.89,37.89,0,0,1,6,3.64c4.89,3.43,23.5,23,27.55,25.66" transform="translate(-45.69 -7.93)"/><path class="cls-58" d="M749.67,493.44a106,106,0,0,1,8.54,26.85c2,12.19-5.62,31.64-4.77,45.81.26,2.76.67,9.39,1.87,11.38,1.47,2.43,4.71,5.12,5,8.37.19,1.88-1.07,3.84-3.61,4.88s-4.2-.16-5.11-.09c-5.28.4-6.28,3.81-15.35,4.84a15.67,15.67,0,0,1-9.48-2.33,1.61,1.61,0,0,1-.34-2.41c.54-.7,7.25-2.48,10.29-4s6.08-5.6,6.58-7.25-.79-9.55-1.36-12.87c-3.9-22.84-8.73-55-11.33-68.32" transform="translate(-45.69 -7.93)"/><path class="cls-59" d="M726.07,593.65c-.64-1-.78-2.45-.16-2.79a53.74,53.74,0,0,1,5.68-2.76c1.77-.64,4.56-1.17,3.57-.75s.79,2.18,2.44,2.13c5.67-.14,9.91-3.26,13.15-3.86,4.69-.87,5.8-5.43,6-6.19a19.5,19.5,0,0,1,4.17,5.46c.36,1.09,1,3.08.62,4.19a8.43,8.43,0,0,0-.58,4,9.78,9.78,0,0,1-3.37,1,15.3,15.3,0,0,1-3.61-.06l-.36-2.52a15.92,15.92,0,0,0-2.89.17,10.06,10.06,0,0,0-4.41,2c-.7.61-1.38,1.58-2.26,1.89a21.22,21.22,0,0,1-7.3,1.34C730.7,596.94,727.17,595.33,726.07,593.65Z" transform="translate(-45.69 -7.93)"/><path class="cls-58" d="M827.07,463.09l41.11,21.07S865.58,498,847,501.56c-10.8,2.07-27.76-.7-32.24-.49s-75.4,2.49-75.4,2.49-7,1.38-8.31-3.59c-2-7.79,0-10.24,5.83-13.7C746.7,480.42,784.34,469.33,827.07,463.09Z" transform="translate(-45.69 -7.93)"/><path class="cls-60" d="M750.47,498.38a102.58,102.58,0,0,1-.06,27.91c-1.88,12.21-15.9,32.59-19.44,46.43-.61,2.71-2.26,9.18-1.72,11.39.67,2.7,3,6.09,2.27,9.29-.41,1.86-2.22,3.43-5,3.8s-4-1.2-4.88-1.36c-5.21-.91-7.21,2.11-16.25.86a14.77,14.77,0,0,1-8.39-4.58,1.62,1.62,0,0,1,.41-2.4c.74-.54,7.74-.59,11.14-1.35,3.25-.72,7.58-3.88,8.56-5.34s2.18-9.38,2.66-12.7c3.28-22.92,9.75-61.53,11.36-75" transform="translate(-45.69 -7.93)"/><path class="cls-59" d="M696.16,592.47c-.32-1.1,0-2.55.7-2.72a55,55,0,0,1,6.31-1.24c1.9-.19,4.75,0,3.67.16s.08,2.28,1.68,2.65c5.5,1.26,10.53-.69,13.84-.46,4.76.32,7.24-3.79,7.68-4.47a18.18,18.18,0,0,1,2.33,6.28c0,1.14,0,3.21-.69,4.19a8.8,8.8,0,0,0-1.79,3.67,9.9,9.9,0,0,1-3.53.07,15.15,15.15,0,0,1-3.45-.94l.43-2.51a15.24,15.24,0,0,0-2.83-.56,10.44,10.44,0,0,0-4.85.83,9.23,9.23,0,0,1-2.76,1.25,21.32,21.32,0,0,1-7.42-.52C699.59,596.78,696.7,594.36,696.16,592.47Z" transform="translate(-45.69 -7.93)"/><path class="cls-60" d="M826.22,465.7l41.11,21.07s-1.64,13.4-20.25,17c-10.8,2.06-28.72-.27-33.2-.06s-75.4,2.49-75.4,2.49-6.93,1.33-7.29-3.75c-.46-6.79-1-10.08,4.81-13.55C745.85,483,783.49,471.94,826.22,465.7Z" transform="translate(-45.69 -7.93)"/><path class="cls-61" d="M859.38,454s12.87,22.44,9.58,32-9.57,18.61-27.23,18.73-61.93.11-61.93.11-1.53-10.35-5.42-16.78a50.57,50.57,0,0,0-10.18-11.49s44.9-12.4,48-15.06,6.17-8.59,6.17-8.59" transform="translate(-45.69 -7.93)"/><path class="cls-62" d="M851.88,381.35c5.06,8,8.23,19.18,9.35,31.79a120.71,120.71,0,0,1-17.79,2.28" transform="translate(-45.69 -7.93)"/><path class="cls-63" d="M809.24,364.84c-2.79.83-1.75,6.8-4.54,7.63-2,.6-6-.2-7.85.74-9.84,5-7.32,14.9-8.51,27.2-4.16,9.44-5.27,18-2,23.27,4.12,6.54,8.48,8.39,13.54,13.81,3.79,4.05,5,12.39,5.8,21.35.14,1.54-1.3,4.24-.88,5.74.8,2.88,5.68,3.78,11.13,3.87,12.52.21,31.51-3.87,37.1-3.68,5.26.17,10.22-2.12,9.71-4.9-.36-1.94-2.53-2.74-3.39-6.5-1.89-8.28-3.34-29-4.82-36-3.77-18-6.52-31.33-14.74-47.89" transform="translate(-45.69 -7.93)"/><path class="cls-64" d="M793.6,409.28A72,72,0,0,1,803.18,398l9,3.64c-4.24,7.29-5,15.89-7,23.87a23.42,23.42,0,0,1-5.22-.46c-.87-1.29-.55-.65-1.71-2.5A30.38,30.38,0,0,1,793.6,409.28Z" transform="translate(-45.69 -7.93)"/><path class="cls-60" d="M787.43,352.45A36.48,36.48,0,0,1,785.89,342c.26-6,1.11-14.73,12.27-18.31s23.46-1.43,27.12,5.78,2.8,18.12,3.33,24,5.31,12.81,5.31,12.81l-24,9.27s-3.93-7.65-5.54-8.56-2.18,2.72-7.53,2.32c-2.27-.17-4.7-3.83-6.53-8.32l-.18-.45a24.23,24.23,0,0,1-2.86-.22c-1.65-.44-1.52-1.1-1.15-2A22.29,22.29,0,0,0,787.43,352.45Z" transform="translate(-45.69 -7.93)"/><path class="cls-60" d="M748.4,470.61c-.32,1.73-4.88,5.88-7.85,6.19a4.67,4.67,0,0,1-2.77-.47c-1.39.33-5.55.14-3.64-1.8-2.95,1.58-5.89,1.05-9.15.42-1.1-.21-.85-1.35,1.66-1.59a12.61,12.61,0,0,0,8.56-4.58c-.44-.41-1,.16-2.36.16-1.55,0-2.25-.74-2.19-1.33s2-.71,2.4-.89l5-2a9.71,9.71,0,0,1,5-.87c.33,0,3.55.68,2.55,1.62" transform="translate(-45.69 -7.93)"/><path class="cls-60" d="M804.55,413.41s-12.61,30.45-14.8,32.94c-8.64,9.8-42.6,25.22-42.6,25.22s-5.28-1.76-4.22-6.64c10.45-4.11,29.74-23.06,34-25.38,2.73-1.5,14.8-38.73,14.8-38.73" transform="translate(-45.69 -7.93)"/><path class="cls-63" d="M799.38,379.56c9.13-3.13,17.86-3.15,24.85-9.41,7.09,4.89-8.57,33.16-12.44,33.92s-9.11,16.39-10.08,18.51c-12.65-.3-17.27-6.47-17.27-6.47C789.6,401.9,790.53,382.58,799.38,379.56Z" transform="translate(-45.69 -7.93)"/><path class="cls-65" d="M806.7,380.33c.63-2.13,2.42-3.82,2.82-6a8.94,8.94,0,0,0-1.34-6.45,12.76,12.76,0,0,0-3.13-2.64c-5-3.55-6.77-6.48-5.08-11.79a13.09,13.09,0,0,0,.85-5.33c-.18-1.62-.55-3.32-2.5-3.53-1.36-.14-2.24.15-2.71,1.18-.34.72.32,5.87-1.58,3s-3.45-3-3.36-9.44c0-.76.3-3.86-.23-4.32-3.33,2.18-4.3,5.92-4.69,8.65-2.51-.95-3.21-4.18-3.22-5.42a13.06,13.06,0,0,1,1.33-6.44c4.36-8.39,9-9.93,12.89-11.41s7.73-2.91,11.84-2.81,9.2,1.19,10.39,3.95c5.69-1.32,8.95,3.14,10.3,4.74a25.23,25.23,0,0,1,4.39,7.6c1.46,4,1.8,8.32,3,12.43.93,3.35,2.53,6.81,5.42,9.15s6.67,2.46,9.69,4.52a13.07,13.07,0,0,1,5.75,11.29c-.2,4.32-2.68,9,.23,12.93.94,1.29,2.27,2.32,3.2,3.62a9,9,0,0,1-.21,10.14c-2.06,3-6.06,6.52-9.82,7.52a31.72,31.72,0,0,1-10.61,1.3c-6.93-.34-12.75,0-20.07-5.59-4.15-3.17-1.49-5-5.47-8.35-2.23-1.89-5.4-2.9-7-5.35a8.66,8.66,0,0,1-1.07-6.86A1.82,1.82,0,0,1,806.7,380.33Z" transform="translate(-45.69 -7.93)"/><rect class="cls-40" x="521.02" y="184.6" width="8.94" height="57.7" transform="translate(55.33 -170.69) rotate(19.44)"/><polygon class="cls-38" points="491.65 171.96 485.19 176.82 493.62 179.8 491.65 171.96"/><polygon class="cls-42" points="488.75 174.14 492.54 175.48 491.65 171.96 488.75 174.14"/><path class="cls-66" d="M659.1,289.29l-31.63,31.15-19.29-19.28,12.53-12.57a34.4,34.4,0,0,0,0-48.61h0a34.39,34.39,0,0,0-48.77.13l-20.42,20.64a12.6,12.6,0,0,1-17.86,0h0a12.58,12.58,0,0,1,0-17.8l64-64a11.55,11.55,0,0,0,0-16.33h0a11.53,11.53,0,0,0-16.32,0L559.7,184.25a13.52,13.52,0,0,1-19.12,0l-3.88-3.88" transform="translate(-45.69 -7.93)"/></g></g></svg>